<svg width="1254" height="503" viewBox="0 0 1254 503" fill="none" xmlns="http://www.w3.org/2000/svg">
<path d="M273 66H296.5L407.5 142" stroke="url(#paint0_linear_51_172)" stroke-width="2"/>
<path d="M244 246H267.5L397.5 268.5" stroke="url(#paint1_linear_51_172)" stroke-width="2"/>
<path d="M952.5 62H929L818 138" stroke="url(#paint2_linear_51_172)" stroke-width="2"/>
<g filter="url(#filter0_d_51_172)">
<rect x="954" y="8" width="232" height="111" rx="5" fill="#020722" shape-rendering="crispEdges"/>
<rect x="953" y="7" width="234" height="113" rx="6" stroke="url(#paint3_linear_51_172)" stroke-width="2" shape-rendering="crispEdges"/>
</g>
<mask id="mask0_51_172" style="mask-type:alpha" maskUnits="userSpaceOnUse" x="952" y="6" width="236" height="115">
<rect x="953" y="7" width="234" height="113" rx="6" fill="#020722" stroke="url(#paint4_linear_51_172)" stroke-width="2"/>
</mask>
<g mask="url(#mask0_51_172)">
<path d="M1151.04 109.769L1145.8 101.328C1151.3 108.157 1161.47 108.496 1167.41 102.183C1172.83 96.4187 1172.55 87.366 1166.79 81.9441C1161.02 76.5247 1151.97 76.7996 1146.55 82.5651C1142.38 86.9945 1141.63 93.2924 1143.97 98.3741L1131.3 77.957L1150.1 72.5324C1155.94 70.8478 1158.7 64.1651 1155.73 58.8499C1153.58 54.9906 1149.11 53.1508 1144.86 54.3762L1116.4 62.5887C1109.02 64.7182 1105.72 73.296 1109.77 79.8267L1118.37 93.6907L1103.29 103.051C1121.44 103.468 1134.55 108.994 1151.04 109.769Z" fill="#1C2138"/>
<path d="M1078.07 119.173C1119.32 107.445 1134.91 131.122 1180.61 119.191C1182.32 118.746 1183.34 117.001 1182.9 115.295C1182.45 113.588 1180.71 112.566 1179 113.011C1135.09 124.474 1119.48 100.76 1076.32 113.03C1074.62 113.512 1073.64 115.278 1074.12 116.974C1074.6 118.671 1076.37 119.655 1078.07 119.173Z" fill="#1C2138"/>
<path d="M1179 127.914C1135.01 139.397 1119.57 115.637 1076.32 127.932C1074.62 128.414 1073.64 130.18 1074.12 131.877C1074.6 133.573 1076.37 134.558 1078.07 134.075C1119.32 122.347 1134.91 146.024 1180.61 134.093C1182.32 133.648 1183.34 131.903 1182.9 130.197C1182.45 128.49 1180.71 127.468 1179 127.914Z" fill="#1C2138"/>
</g>
<path d="M993.12 80.488C993.12 81.672 992.885 82.5947 992.416 83.256C991.957 83.9067 991.307 84.36 990.464 84.616C989.621 84.872 988.629 85 987.488 85H985.008V75.992H987.488C988.629 75.992 989.621 76.1627 990.464 76.504C991.307 76.8347 991.957 77.3307 992.416 77.992C992.885 78.6533 993.12 79.4853 993.12 80.488ZM986.624 83.656H987.952C988.656 83.656 989.264 83.576 989.776 83.416C990.288 83.2453 990.683 82.9307 990.96 82.472C991.237 82.0133 991.376 81.3467 991.376 80.472C991.376 79.4373 991.067 78.6693 990.448 78.168C989.84 77.656 989.008 77.4 987.952 77.4H986.624V83.656ZM998.679 83.608V85H994.663V83.608H995.879V77.4H994.663V75.992H998.679V77.4H997.495V83.608H998.679ZM1004.17 85.176C1003.68 85.176 1003.19 85.1173 1002.71 85C1002.24 84.8827 1001.81 84.7013 1001.43 84.456C1001.05 84.2107 1000.74 83.8907 1000.52 83.496C1000.29 83.0907 1000.18 82.6053 1000.17 82.04H1001.81C1001.81 82.0933 1001.84 82.2107 1001.88 82.392C1001.92 82.5627 1002.02 82.7493 1002.17 82.952C1002.33 83.1547 1002.57 83.3307 1002.9 83.48C1003.24 83.6293 1003.7 83.704 1004.28 83.704C1004.91 83.704 1005.37 83.5867 1005.67 83.352C1005.98 83.1173 1006.13 82.8667 1006.13 82.6C1006.13 82.3013 1006.03 82.0667 1005.81 81.896C1005.61 81.7147 1005.33 81.5707 1004.98 81.464C1004.64 81.3467 1004.26 81.24 1003.85 81.144C1003.44 81.048 1003.03 80.9413 1002.61 80.824C1002.21 80.696 1001.84 80.5307 1001.49 80.328C1001.16 80.1147 1000.9 79.8427 1000.71 79.512C1000.52 79.1813 1000.43 78.76 1000.45 78.248C1000.51 77.4907 1000.87 76.8987 1001.54 76.472C1002.21 76.0453 1003.1 75.832 1004.21 75.832C1004.85 75.832 1005.45 75.9493 1005.99 76.184C1006.54 76.408 1006.99 76.7493 1007.32 77.208C1007.66 77.656 1007.83 78.232 1007.83 78.936H1006.25C1006.25 78.6053 1006.17 78.3387 1006.02 78.136C1005.87 77.9227 1005.68 77.7627 1005.45 77.656C1005.22 77.5387 1004.98 77.464 1004.73 77.432C1004.47 77.3893 1004.24 77.368 1004.04 77.368C1003.5 77.368 1003.06 77.4587 1002.71 77.64C1002.37 77.8213 1002.2 78.088 1002.2 78.44C1002.19 78.7387 1002.29 78.9787 1002.5 79.16C1002.72 79.3413 1003 79.4853 1003.35 79.592C1003.7 79.6987 1004.09 79.7947 1004.5 79.88C1004.92 79.9653 1005.33 80.072 1005.75 80.2C1006.17 80.3173 1006.54 80.4773 1006.89 80.68C1007.23 80.872 1007.49 81.1387 1007.69 81.48C1007.88 81.8107 1007.96 82.2427 1007.93 82.776C1007.88 83.5333 1007.52 84.1253 1006.82 84.552C1006.13 84.968 1005.24 85.176 1004.17 85.176ZM1008.79 77.4V75.992H1015.75V77.4H1013.07V85H1011.44V77.4H1008.79ZM1015.77 85L1018.65 75.992H1021.32L1024.28 85H1022.54L1021.77 82.456H1018.27L1017.5 85H1015.77ZM1020.01 76.68L1018.65 81.192H1021.39L1020.01 76.68ZM1031.62 75.992H1033.32V85H1030.21L1027.12 76.712H1027.09V85H1025.41V75.992H1028.29L1031.59 84.28H1031.62V75.992ZM1039.05 85.16C1038.21 85.16 1037.45 84.9893 1036.76 84.648C1036.08 84.296 1035.54 83.7787 1035.13 83.096C1034.74 82.4133 1034.54 81.56 1034.54 80.536C1034.55 79.5333 1034.75 78.68 1035.15 77.976C1035.54 77.272 1036.08 76.7387 1036.76 76.376C1037.45 76.0133 1038.22 75.832 1039.1 75.832C1039.93 75.832 1040.64 75.9813 1041.23 76.28C1041.81 76.5787 1042.28 76.984 1042.63 77.496C1043 78.008 1043.23 78.584 1043.34 79.224H1041.66C1041.58 78.7547 1041.41 78.3867 1041.13 78.12C1040.86 77.8427 1040.55 77.6507 1040.19 77.544C1039.82 77.4267 1039.46 77.368 1039.1 77.368C1038.15 77.368 1037.42 77.6347 1036.91 78.168C1036.41 78.7013 1036.15 79.4533 1036.15 80.424C1036.15 81.4587 1036.4 82.2533 1036.89 82.808C1037.39 83.3627 1038.12 83.64 1039.07 83.64C1039.46 83.64 1039.85 83.5813 1040.22 83.464C1040.59 83.336 1040.91 83.1333 1041.18 82.856C1041.45 82.568 1041.62 82.184 1041.69 81.704H1043.39C1043.27 82.3653 1043.03 82.9573 1042.67 83.48C1042.31 83.992 1041.83 84.4027 1041.23 84.712C1040.63 85.0107 1039.9 85.16 1039.05 85.16ZM1046.32 83.688H1051.3V85H1044.71V75.992H1051.14V77.4H1046.32V79.768H1050.02V81.112H1046.32V83.688ZM1056.26 85V75.992H1059.57C1060.73 75.992 1061.64 76.1893 1062.29 76.584C1062.94 76.968 1063.26 77.6507 1063.26 78.632C1063.26 79.368 1063.09 79.9653 1062.74 80.424C1062.38 80.872 1061.88 81.096 1061.22 81.096C1061.59 81.096 1061.87 81.1813 1062.05 81.352C1062.24 81.512 1062.37 81.7147 1062.45 81.96C1062.52 82.2053 1062.58 82.4613 1062.61 82.728C1062.64 82.9947 1062.68 83.2347 1062.72 83.448C1062.77 83.6507 1062.87 83.7947 1063.01 83.88C1063.16 83.9653 1063.39 83.9493 1063.7 83.832V84.776C1063.49 84.9467 1063.25 85.0587 1062.98 85.112C1062.7 85.176 1062.43 85.16 1062.16 85.064C1061.89 84.968 1061.67 84.7813 1061.49 84.504C1061.31 84.216 1061.22 83.816 1061.22 83.304C1061.22 82.8347 1061.19 82.4613 1061.14 82.184C1061.08 81.896 1060.95 81.6827 1060.74 81.544C1060.52 81.3947 1060.19 81.304 1059.74 81.272C1059.3 81.2293 1058.68 81.2293 1057.89 81.272V85H1056.26ZM1057.89 80.088H1059.5C1060.03 80.088 1060.46 80.0667 1060.8 80.024C1061.14 79.9707 1061.39 79.8533 1061.55 79.672C1061.72 79.48 1061.81 79.176 1061.81 78.76C1061.81 78.3013 1061.71 77.9707 1061.5 77.768C1061.3 77.5653 1061 77.4427 1060.61 77.4C1060.22 77.3467 1059.75 77.32 1059.18 77.32H1057.89V80.088ZM1069 85.224C1067.72 85.224 1066.75 84.872 1066.07 84.168C1065.41 83.4533 1065.08 82.4507 1065.08 81.16V75.992H1066.83V81.144C1066.83 81.8053 1066.93 82.3173 1067.15 82.68C1067.36 83.0427 1067.63 83.2987 1067.96 83.448C1068.29 83.5973 1068.64 83.672 1069 83.672C1069.41 83.672 1069.78 83.6027 1070.11 83.464C1070.44 83.3147 1070.7 83.0587 1070.89 82.696C1071.09 82.3333 1071.19 81.816 1071.19 81.144V75.992H1072.92V81.16C1072.92 82.472 1072.59 83.48 1071.93 84.184C1071.28 84.8773 1070.3 85.224 1069 85.224ZM1080.84 75.992H1082.53V85H1079.43L1076.34 76.712H1076.31V85H1074.63V75.992H1077.51L1080.81 84.28H1080.84V75.992ZM1090.67 88.184C1090.67 88.184 1090.56 88.0987 1090.35 87.928C1090.14 87.7573 1089.89 87.5013 1089.58 87.16C1089.28 86.8293 1088.97 86.408 1088.67 85.896C1088.37 85.384 1088.12 84.7867 1087.91 84.104C1087.71 83.4213 1087.61 82.6533 1087.61 81.8C1087.61 80.936 1087.71 80.1627 1087.91 79.48C1088.12 78.7867 1088.37 78.184 1088.67 77.672C1088.97 77.16 1089.28 76.7333 1089.58 76.392C1089.89 76.04 1090.14 75.7787 1090.35 75.608C1090.56 75.4373 1090.67 75.352 1090.67 75.352L1091.93 76.616C1091.89 76.648 1091.75 76.7387 1091.51 76.888C1091.29 77.0267 1091.02 77.2347 1090.7 77.512C1090.39 77.7787 1090.08 78.1147 1089.77 78.52C1089.46 78.9147 1089.2 79.384 1089 79.928C1088.8 80.472 1088.7 81.096 1088.7 81.8C1088.7 82.5147 1088.8 83.1493 1089.02 83.704C1089.24 84.2587 1089.51 84.7333 1089.83 85.128C1090.15 85.5333 1090.47 85.864 1090.79 86.12C1091.11 86.376 1091.38 86.568 1091.59 86.696C1091.82 86.824 1091.93 86.888 1091.93 86.888L1090.67 88.184ZM1093.3 85V75.992H1096.15L1098.26 84.296H1098.3L1100.39 75.992H1103.22V85H1101.53L1101.64 76.728H1101.62L1099.46 85H1097.06L1094.94 76.728H1094.9L1095 85H1093.3ZM1105.47 88.184L1104.21 86.888C1104.21 86.888 1104.31 86.824 1104.53 86.696C1104.75 86.568 1105.02 86.376 1105.34 86.12C1105.66 85.864 1105.98 85.5333 1106.3 85.128C1106.62 84.7333 1106.89 84.2587 1107.1 83.704C1107.33 83.1493 1107.44 82.5147 1107.44 81.8C1107.44 81.096 1107.34 80.472 1107.13 79.928C1106.93 79.384 1106.67 78.9147 1106.37 78.52C1106.06 78.1147 1105.74 77.7787 1105.42 77.512C1105.11 77.2347 1104.84 77.0267 1104.61 76.888C1104.38 76.7387 1104.25 76.648 1104.21 76.616L1105.47 75.352C1105.47 75.352 1105.57 75.4373 1105.77 75.608C1105.99 75.7787 1106.24 76.04 1106.54 76.392C1106.85 76.7333 1107.15 77.16 1107.45 77.672C1107.76 78.184 1108.02 78.7867 1108.22 79.48C1108.42 80.1627 1108.53 80.936 1108.53 81.8C1108.53 82.6533 1108.42 83.4213 1108.22 84.104C1108.02 84.7867 1107.76 85.384 1107.45 85.896C1107.15 86.408 1106.85 86.8293 1106.54 87.16C1106.24 87.5013 1105.99 87.7573 1105.77 87.928C1105.57 88.0987 1105.47 88.184 1105.47 88.184Z" fill="#A8ADC3"/>
<path d="M990.816 41.2L989.712 46.696C989.68 46.872 989.72 47.032 989.832 47.176C989.944 47.304 990.088 47.368 990.264 47.368H994.056C994.184 47.368 994.296 47.328 994.392 47.248C994.504 47.152 994.576 47.04 994.608 46.912L995.736 41.2H1000.78L997.416 58H992.376L993.84 50.728H987.288C986.392 50.728 985.672 50.384 985.128 49.696C984.744 49.216 984.536 48.824 984.504 48.52C984.488 48.2 984.48 47.976 984.48 47.848C984.48 47.832 984.496 47.728 984.528 47.536C984.576 47.328 984.632 47.072 984.696 46.768C984.76 46.448 984.824 46.088 984.888 45.688C984.968 45.288 985.048 44.88 985.128 44.464C985.32 43.504 985.536 42.416 985.776 41.2H990.816ZM1001.75 58L1002.55 54.088H1005.67L1004.9 58H1001.75ZM1011.52 47.368H1017.19L1017.48 45.856C1017.51 45.664 1017.46 45.496 1017.33 45.352C1017.22 45.192 1017.07 45.112 1016.88 45.112H1009.03L1009.82 41.2H1020.04C1020.48 41.2 1020.88 41.296 1021.24 41.488C1021.63 41.664 1021.95 41.912 1022.2 42.232C1022.46 42.536 1022.64 42.888 1022.76 43.288C1022.87 43.688 1022.88 44.104 1022.78 44.536L1021.48 50.728H1013.61C1013.48 50.728 1013.36 50.768 1013.25 50.848C1013.16 50.928 1013.09 51.032 1013.06 51.16L1012.48 54.088H1021.48L1020.72 58H1006.65L1008.24 50.08C1008.32 49.68 1008.45 49.32 1008.64 49C1008.85 48.664 1009.1 48.376 1009.39 48.136C1009.68 47.896 1010 47.712 1010.37 47.584C1010.74 47.44 1011.12 47.368 1011.52 47.368ZM1038.38 41.2C1038.81 41.2 1039.21 41.296 1039.58 41.488C1039.96 41.664 1040.28 41.912 1040.54 42.232C1040.79 42.536 1040.98 42.888 1041.09 43.288C1041.2 43.688 1041.21 44.104 1041.11 44.536L1038.88 55.744C1038.75 56.416 1038.42 56.96 1037.9 57.376C1037.38 57.792 1036.79 58 1036.12 58H1026.62C1026.17 58 1025.75 57.912 1025.37 57.736C1025 57.544 1024.69 57.296 1024.43 56.992C1024.19 56.672 1024.02 56.312 1023.9 55.912C1023.79 55.496 1023.78 55.072 1023.86 54.64L1026.11 43.456C1026.24 42.784 1026.56 42.24 1027.07 41.824C1027.58 41.408 1028.18 41.2 1028.85 41.2H1038.38ZM1029.28 53.872C1029.39 54.016 1029.54 54.088 1029.71 54.088H1033.72C1034.01 54.088 1034.19 53.936 1034.27 53.632L1035.83 45.784C1035.86 45.608 1035.82 45.456 1035.71 45.328C1035.6 45.184 1035.46 45.112 1035.28 45.112H1031.27C1031.14 45.112 1031.02 45.16 1030.91 45.256C1030.82 45.336 1030.75 45.44 1030.72 45.568L1029.16 53.416C1029.13 53.592 1029.17 53.744 1029.28 53.872ZM1051.9 47.368C1052.03 47.368 1052.14 47.328 1052.24 47.248C1052.35 47.152 1052.42 47.04 1052.46 46.912L1052.67 45.784C1052.7 45.608 1052.66 45.456 1052.55 45.328C1052.44 45.184 1052.3 45.112 1052.12 45.112H1044.1L1044.9 41.2H1055.22C1055.66 41.2 1056.07 41.296 1056.44 41.488C1056.82 41.664 1057.14 41.912 1057.38 42.232C1057.63 42.536 1057.82 42.888 1057.93 43.288C1058.04 43.688 1058.06 44.104 1057.98 44.536L1057.42 47.248C1057.33 47.76 1057.07 48.192 1056.66 48.544C1056.24 48.88 1055.77 49.048 1055.24 49.048H1055.6C1055.95 49.048 1056.27 49.128 1056.56 49.288C1056.86 49.432 1057.12 49.632 1057.33 49.888C1057.54 50.128 1057.68 50.408 1057.76 50.728C1057.86 51.048 1057.86 51.376 1057.78 51.712L1056.97 55.744C1056.84 56.416 1056.52 56.96 1056.01 57.376C1055.5 57.792 1054.9 58 1054.23 58H1042.14L1042.93 54.088H1051.81C1051.94 54.088 1052.05 54.048 1052.14 53.968C1052.26 53.872 1052.33 53.76 1052.36 53.632L1052.82 51.4C1052.85 51.224 1052.81 51.072 1052.7 50.944C1052.58 50.8 1052.44 50.728 1052.26 50.728H1044.42L1045.09 47.368H1051.9ZM1058.99 58L1059.78 54.088H1062.9L1062.13 58H1058.99ZM1078.45 41.2C1078.89 41.2 1079.29 41.296 1079.65 41.488C1080.04 41.664 1080.36 41.912 1080.61 42.232C1080.87 42.536 1081.05 42.888 1081.17 43.288C1081.28 43.688 1081.29 44.104 1081.19 44.536L1078.96 55.744C1078.83 56.416 1078.5 56.96 1077.97 57.376C1077.46 57.792 1076.87 58 1076.2 58H1066.69C1066.25 58 1065.83 57.912 1065.45 57.736C1065.08 57.544 1064.77 57.296 1064.51 56.992C1064.27 56.672 1064.09 56.312 1063.98 55.912C1063.87 55.496 1063.85 55.072 1063.93 54.64L1066.19 43.456C1066.32 42.784 1066.64 42.24 1067.15 41.824C1067.66 41.408 1068.25 41.2 1068.93 41.2H1078.45ZM1069.36 53.872C1069.47 54.016 1069.61 54.088 1069.79 54.088H1073.8C1074.09 54.088 1074.27 53.936 1074.35 53.632L1075.91 45.784C1075.94 45.608 1075.9 45.456 1075.79 45.328C1075.68 45.184 1075.53 45.112 1075.36 45.112H1071.35C1071.22 45.112 1071.1 45.16 1070.99 45.256C1070.89 45.336 1070.83 45.44 1070.8 45.568L1069.24 53.416C1069.21 53.592 1069.25 53.744 1069.36 53.872ZM1087.09 47.368H1092.75L1093.04 45.856C1093.07 45.664 1093.02 45.496 1092.89 45.352C1092.78 45.192 1092.63 45.112 1092.44 45.112H1084.59L1085.38 41.2H1095.61C1096.04 41.2 1096.44 41.296 1096.81 41.488C1097.19 41.664 1097.51 41.912 1097.77 42.232C1098.02 42.536 1098.21 42.888 1098.32 43.288C1098.43 43.688 1098.44 44.104 1098.34 44.536L1097.05 50.728H1089.17C1089.05 50.728 1088.93 50.768 1088.81 50.848C1088.72 50.928 1088.65 51.032 1088.62 51.16L1088.05 54.088H1097.05L1096.28 58H1082.21L1083.8 50.08C1083.88 49.68 1084.01 49.32 1084.21 49C1084.41 48.664 1084.66 48.376 1084.95 48.136C1085.24 47.896 1085.57 47.712 1085.93 47.584C1086.3 47.44 1086.69 47.368 1087.09 47.368ZM1102.18 51.544C1101.79 51.368 1101.47 51.128 1101.22 50.824C1100.96 50.52 1100.78 50.176 1100.67 49.792C1100.55 49.392 1100.54 48.976 1100.62 48.544L1101.67 43.432C1101.8 42.776 1102.12 42.24 1102.63 41.824C1103.15 41.408 1103.74 41.2 1104.41 41.2H1112.76C1113.19 41.2 1113.59 41.296 1113.96 41.488C1114.35 41.664 1114.67 41.912 1114.92 42.232C1115.18 42.536 1115.36 42.888 1115.47 43.288C1115.59 43.688 1115.59 44.104 1115.5 44.536L1113.27 55.744C1113.14 56.416 1112.81 56.96 1112.28 57.376C1111.77 57.792 1111.18 58 1110.51 58H1099.37L1100.16 54.088H1108.11C1108.41 54.088 1108.59 53.936 1108.63 53.632L1108.99 51.832H1103.38C1102.95 51.832 1102.55 51.736 1102.18 51.544ZM1105.92 48.256C1106.03 48.4 1106.18 48.472 1106.35 48.472H1109.67L1110.22 45.784C1110.25 45.608 1110.21 45.456 1110.1 45.328C1109.99 45.184 1109.84 45.112 1109.67 45.112H1106.83C1106.71 45.112 1106.59 45.16 1106.47 45.256C1106.38 45.336 1106.31 45.44 1106.28 45.568L1105.8 47.8C1105.77 47.976 1105.81 48.128 1105.92 48.256ZM1116.55 60.136L1117.75 54.088H1120.89L1118.13 60.808H1117.08C1116.9 60.808 1116.76 60.736 1116.65 60.592C1116.55 60.464 1116.52 60.312 1116.55 60.136ZM1124.66 51.544C1124.27 51.368 1123.95 51.128 1123.7 50.824C1123.44 50.52 1123.26 50.176 1123.14 49.792C1123.03 49.392 1123.02 48.976 1123.1 48.544L1124.15 43.432C1124.28 42.776 1124.6 42.24 1125.11 41.824C1125.62 41.408 1126.22 41.2 1126.89 41.2H1135.24C1135.67 41.2 1136.07 41.296 1136.44 41.488C1136.82 41.664 1137.14 41.912 1137.4 42.232C1137.66 42.536 1137.84 42.888 1137.95 43.288C1138.06 43.688 1138.07 44.104 1137.98 44.536L1135.74 55.744C1135.62 56.416 1135.29 56.96 1134.76 57.376C1134.25 57.792 1133.66 58 1132.98 58H1121.85L1122.64 54.088H1130.58C1130.89 54.088 1131.06 53.936 1131.11 53.632L1131.47 51.832H1125.86C1125.42 51.832 1125.02 51.736 1124.66 51.544ZM1128.4 48.256C1128.51 48.4 1128.66 48.472 1128.83 48.472H1132.14L1132.7 45.784C1132.73 45.608 1132.69 45.456 1132.58 45.328C1132.46 45.184 1132.32 45.112 1132.14 45.112H1129.31C1129.18 45.112 1129.06 45.16 1128.95 45.256C1128.86 45.336 1128.79 45.44 1128.76 45.568L1128.28 47.8C1128.25 47.976 1128.29 48.128 1128.4 48.256ZM1145.95 41.2L1144.84 46.696C1144.81 46.872 1144.85 47.032 1144.96 47.176C1145.08 47.304 1145.22 47.368 1145.4 47.368H1149.19C1149.32 47.368 1149.43 47.328 1149.52 47.248C1149.64 47.152 1149.71 47.04 1149.74 46.912L1150.87 41.2H1155.91L1152.55 58H1147.51L1148.97 50.728H1142.42C1141.52 50.728 1140.8 50.384 1140.26 49.696C1139.88 49.216 1139.67 48.824 1139.64 48.52C1139.62 48.2 1139.61 47.976 1139.61 47.848C1139.61 47.832 1139.63 47.728 1139.66 47.536C1139.71 47.328 1139.76 47.072 1139.83 46.768C1139.89 46.448 1139.96 46.088 1140.02 45.688C1140.1 45.288 1140.18 44.88 1140.26 44.464C1140.45 43.504 1140.67 42.416 1140.91 41.2H1145.95Z" fill="#4CCBC9"/>
<g filter="url(#filter1_d_51_172)">
<rect x="41" y="8" width="232" height="111" rx="5" fill="#020722" shape-rendering="crispEdges"/>
<rect x="40" y="7" width="234" height="113" rx="6" stroke="url(#paint5_linear_51_172)" stroke-width="2" shape-rendering="crispEdges"/>
</g>
<mask id="mask1_51_172" style="mask-type:alpha" maskUnits="userSpaceOnUse" x="39" y="6" width="236" height="115">
<rect x="40" y="7" width="234" height="113" rx="6" fill="#020722" stroke="url(#paint6_linear_51_172)" stroke-width="2"/>
</mask>
<g mask="url(#mask1_51_172)">
<path d="M238.041 109.769L232.804 101.328C238.3 108.157 248.469 108.496 254.407 102.183C259.828 96.4187 259.551 87.366 253.786 81.9441C248.024 76.5247 238.969 76.7996 233.547 82.5651C229.381 86.9945 228.626 93.2924 230.971 98.3741L218.303 77.957L237.102 72.5324C242.94 70.8478 245.699 64.1651 242.733 58.8499C240.579 54.9906 236.109 53.1508 231.863 54.3762L203.403 62.5887C196.024 64.7182 192.719 73.296 196.771 79.8267L205.373 93.6907L190.287 103.051C208.437 103.468 221.55 108.994 238.041 109.769Z" fill="#1C2138"/>
<path d="M165.067 119.173C206.325 107.445 221.907 131.122 267.612 119.191C269.319 118.746 270.341 117.001 269.896 115.295C269.45 113.588 267.706 112.566 265.999 113.011C222.088 124.474 206.485 100.76 163.321 113.03C161.625 113.512 160.64 115.278 161.122 116.974C161.605 118.671 163.372 119.655 165.067 119.173Z" fill="#1C2138"/>
<path d="M265.999 127.914C222.007 139.397 206.57 115.637 163.321 127.932C161.625 128.414 160.64 130.18 161.122 131.877C161.605 133.573 163.371 134.558 165.067 134.075C206.325 122.347 221.907 146.024 267.612 134.093C269.319 133.648 270.341 131.903 269.896 130.197C269.45 128.49 267.706 127.468 265.999 127.914Z" fill="#1C2138"/>
</g>
<path d="M71.16 77.4V75.992H78.12V77.4H75.448V85H73.816V77.4H71.16ZM89.697 75.992H91.425L89.265 85H86.641L85.137 78.088L83.649 85H81.009L78.833 75.992H80.577L82.321 84.312L84.273 76.024L84.257 75.992H86.001L87.953 84.312L89.697 75.992ZM96.726 83.608V85H92.71V83.608H93.926V77.4H92.71V75.992H96.726V77.4H95.542V83.608H96.726ZM97.9569 77.4V75.992H104.917V77.4H102.245V85H100.613V77.4H97.9569ZM105.926 77.4V75.992H112.886V77.4H110.214V85H108.582V77.4H105.926ZM115.87 83.688H120.846V85H114.254V75.992H120.686V77.4H115.87V79.768H119.566V81.112H115.87V83.688ZM122.318 85V75.992H125.63C126.793 75.992 127.699 76.1893 128.35 76.584C129.001 76.968 129.326 77.6507 129.326 78.632C129.326 79.368 129.15 79.9653 128.798 80.424C128.446 80.872 127.939 81.096 127.278 81.096C127.651 81.096 127.929 81.1813 128.11 81.352C128.302 81.512 128.435 81.7147 128.51 81.96C128.585 82.2053 128.638 82.4613 128.67 82.728C128.702 82.9947 128.739 83.2347 128.782 83.448C128.835 83.6507 128.931 83.7947 129.07 83.88C129.219 83.9653 129.449 83.9493 129.758 83.832V84.776C129.555 84.9467 129.315 85.0587 129.038 85.112C128.761 85.176 128.489 85.16 128.222 85.064C127.955 84.968 127.731 84.7813 127.55 84.504C127.369 84.216 127.278 83.816 127.278 83.304C127.278 82.8347 127.251 82.4613 127.198 82.184C127.145 81.896 127.011 81.6827 126.798 81.544C126.585 81.3947 126.254 81.304 125.806 81.272C125.358 81.2293 124.739 81.2293 123.95 81.272V85H122.318ZM123.95 80.088H125.566C126.089 80.088 126.521 80.0667 126.862 80.024C127.203 79.9707 127.454 79.8533 127.614 79.672C127.785 79.48 127.87 79.176 127.87 78.76C127.87 78.3013 127.769 77.9707 127.566 77.768C127.363 77.5653 127.065 77.4427 126.67 77.4C126.286 77.3467 125.811 77.32 125.246 77.32H123.95V80.088ZM136.421 85H134.821V75.992H141.237V77.4H136.421V79.608H140.101V80.936H136.421V85ZM146.127 85.224C144.677 85.224 143.567 84.8027 142.799 83.96C142.031 83.1067 141.647 81.96 141.647 80.52C141.647 79.5707 141.813 78.7493 142.143 78.056C142.474 77.352 142.97 76.808 143.631 76.424C144.303 76.0293 145.135 75.832 146.127 75.832C147.599 75.832 148.714 76.2587 149.471 77.112C150.229 77.9547 150.607 79.0907 150.607 80.52C150.607 81.448 150.437 82.2693 150.095 82.984C149.754 83.688 149.253 84.2373 148.591 84.632C147.93 85.0267 147.109 85.224 146.127 85.224ZM146.111 83.656C147.071 83.656 147.791 83.3573 148.271 82.76C148.762 82.1627 149.007 81.416 149.007 80.52C149.007 79.912 148.901 79.3733 148.687 78.904C148.474 78.424 148.154 78.0507 147.727 77.784C147.301 77.5067 146.762 77.368 146.111 77.368C145.173 77.368 144.458 77.656 143.967 78.232C143.477 78.808 143.231 79.5707 143.231 80.52C143.231 81.1067 143.333 81.64 143.535 82.12C143.749 82.5893 144.069 82.9627 144.495 83.24C144.922 83.5173 145.461 83.656 146.111 83.656ZM152.164 85V75.992H153.796V83.608H158.244V85H152.164ZM159.68 85V75.992H161.312V83.608H165.76V85H159.68ZM170.909 85.224C169.458 85.224 168.349 84.8027 167.581 83.96C166.813 83.1067 166.429 81.96 166.429 80.52C166.429 79.5707 166.594 78.7493 166.925 78.056C167.255 77.352 167.751 76.808 168.413 76.424C169.085 76.0293 169.917 75.832 170.909 75.832C172.381 75.832 173.495 76.2587 174.253 77.112C175.01 77.9547 175.389 79.0907 175.389 80.52C175.389 81.448 175.218 82.2693 174.877 82.984C174.535 83.688 174.034 84.2373 173.373 84.632C172.711 85.0267 171.89 85.224 170.909 85.224ZM170.893 83.656C171.853 83.656 172.573 83.3573 173.053 82.76C173.543 82.1627 173.789 81.416 173.789 80.52C173.789 79.912 173.682 79.3733 173.469 78.904C173.255 78.424 172.935 78.0507 172.509 77.784C172.082 77.5067 171.543 77.368 170.893 77.368C169.954 77.368 169.239 77.656 168.749 78.232C168.258 78.808 168.013 79.5707 168.013 80.52C168.013 81.1067 168.114 81.64 168.317 82.12C168.53 82.5893 168.85 82.9627 169.277 83.24C169.703 83.5173 170.242 83.656 170.893 83.656ZM187.01 75.992H188.738L186.578 85H183.954L182.45 78.088L180.962 85H178.322L176.146 75.992H177.89L179.634 84.312L181.586 76.024L181.57 75.992H183.314L185.266 84.312L187.01 75.992ZM191.73 83.688H196.706V85H190.114V75.992H196.546V77.4H191.73V79.768H195.426V81.112H191.73V83.688ZM198.177 85V75.992H201.489C202.652 75.992 203.559 76.1893 204.209 76.584C204.86 76.968 205.185 77.6507 205.185 78.632C205.185 79.368 205.009 79.9653 204.657 80.424C204.305 80.872 203.799 81.096 203.137 81.096C203.511 81.096 203.788 81.1813 203.969 81.352C204.161 81.512 204.295 81.7147 204.369 81.96C204.444 82.2053 204.497 82.4613 204.529 82.728C204.561 82.9947 204.599 83.2347 204.641 83.448C204.695 83.6507 204.791 83.7947 204.929 83.88C205.079 83.9653 205.308 83.9493 205.617 83.832V84.776C205.415 84.9467 205.175 85.0587 204.897 85.112C204.62 85.176 204.348 85.16 204.081 85.064C203.815 84.968 203.591 84.7813 203.409 84.504C203.228 84.216 203.137 83.816 203.137 83.304C203.137 82.8347 203.111 82.4613 203.057 82.184C203.004 81.896 202.871 81.6827 202.657 81.544C202.444 81.3947 202.113 81.304 201.665 81.272C201.217 81.2293 200.599 81.2293 199.809 81.272V85H198.177ZM199.809 80.088H201.425C201.948 80.088 202.38 80.0667 202.721 80.024C203.063 79.9707 203.313 79.8533 203.473 79.672C203.644 79.48 203.729 79.176 203.729 78.76C203.729 78.3013 203.628 77.9707 203.425 77.768C203.223 77.5653 202.924 77.4427 202.529 77.4C202.145 77.3467 201.671 77.32 201.105 77.32H199.809V80.088ZM210.572 85.176C210.082 85.176 209.596 85.1173 209.116 85C208.647 84.8827 208.22 84.7013 207.836 84.456C207.452 84.2107 207.148 83.8907 206.924 83.496C206.7 83.0907 206.583 82.6053 206.572 82.04H208.22C208.22 82.0933 208.242 82.2107 208.284 82.392C208.327 82.5627 208.423 82.7493 208.572 82.952C208.732 83.1547 208.978 83.3307 209.308 83.48C209.65 83.6293 210.108 83.704 210.684 83.704C211.314 83.704 211.778 83.5867 212.076 83.352C212.386 83.1173 212.54 82.8667 212.54 82.6C212.54 82.3013 212.434 82.0667 212.22 81.896C212.018 81.7147 211.74 81.5707 211.388 81.464C211.047 81.3467 210.668 81.24 210.252 81.144C209.847 81.048 209.436 80.9413 209.02 80.824C208.615 80.696 208.242 80.5307 207.9 80.328C207.57 80.1147 207.308 79.8427 207.116 79.512C206.924 79.1813 206.839 78.76 206.86 78.248C206.914 77.4907 207.276 76.8987 207.948 76.472C208.62 76.0453 209.511 75.832 210.62 75.832C211.26 75.832 211.852 75.9493 212.396 76.184C212.951 76.408 213.394 76.7493 213.724 77.208C214.066 77.656 214.236 78.232 214.236 78.936H212.652C212.652 78.6053 212.578 78.3387 212.428 78.136C212.279 77.9227 212.087 77.7627 211.852 77.656C211.628 77.5387 211.388 77.464 211.132 77.432C210.876 77.3893 210.647 77.368 210.444 77.368C209.911 77.368 209.468 77.4587 209.116 77.64C208.775 77.8213 208.604 78.088 208.604 78.44C208.594 78.7387 208.695 78.9787 208.908 79.16C209.122 79.3413 209.404 79.4853 209.756 79.592C210.108 79.6987 210.492 79.7947 210.908 79.88C211.324 79.9653 211.74 80.072 212.156 80.2C212.572 80.3173 212.951 80.4773 213.292 80.68C213.634 80.872 213.9 81.1387 214.092 81.48C214.284 81.8107 214.364 82.2427 214.332 82.776C214.29 83.5333 213.922 84.1253 213.228 84.552C212.535 84.968 211.65 85.176 210.572 85.176Z" fill="#A8ADC3"/>
<path d="M85.352 41.872L84.704 45.112L79.04 58H73.448L79.448 45.112H71.48L72.272 41.2H84.8C84.976 41.2 85.12 41.272 85.232 41.416C85.344 41.544 85.384 41.696 85.352 41.872ZM100.064 41.2C100.496 41.2 100.896 41.296 101.264 41.488C101.648 41.664 101.968 41.912 102.224 42.232C102.48 42.536 102.664 42.888 102.776 43.288C102.888 43.688 102.896 44.104 102.8 44.536L100.568 55.744C100.44 56.416 100.112 56.96 99.5836 57.376C99.0716 57.792 98.4796 58 97.8076 58H88.3036C87.8556 58 87.4396 57.912 87.0556 57.736C86.6876 57.544 86.3756 57.296 86.1196 56.992C85.8796 56.672 85.7036 56.312 85.5916 55.912C85.4796 55.496 85.4636 55.072 85.5436 54.64L87.7996 43.456C87.9276 42.784 88.2476 42.24 88.7596 41.824C89.2716 41.408 89.8636 41.2 90.5356 41.2H100.064ZM90.9676 53.872C91.0796 54.016 91.2236 54.088 91.3996 54.088H95.4076C95.6956 54.088 95.8796 53.936 95.9596 53.632L97.5196 45.784C97.5516 45.608 97.5116 45.456 97.3996 45.328C97.2876 45.184 97.1436 45.112 96.9676 45.112H92.9596C92.8316 45.112 92.7116 45.16 92.5996 45.256C92.5036 45.336 92.4396 45.44 92.4076 45.568L90.8476 53.416C90.8156 53.592 90.8556 53.744 90.9676 53.872ZM113.592 47.368C113.72 47.368 113.832 47.328 113.928 47.248C114.04 47.152 114.112 47.04 114.144 46.912L114.36 45.784C114.392 45.608 114.352 45.456 114.24 45.328C114.128 45.184 113.984 45.112 113.808 45.112H105.792L106.584 41.2H116.904C117.352 41.2 117.76 41.296 118.128 41.488C118.512 41.664 118.824 41.912 119.064 42.232C119.32 42.536 119.504 42.888 119.616 43.288C119.728 43.688 119.744 44.104 119.664 44.536L119.112 47.248C119.016 47.76 118.76 48.192 118.344 48.544C117.928 48.88 117.456 49.048 116.928 49.048H117.288C117.64 49.048 117.96 49.128 118.248 49.288C118.552 49.432 118.808 49.632 119.016 49.888C119.224 50.128 119.368 50.408 119.448 50.728C119.544 51.048 119.552 51.376 119.472 51.712L118.656 55.744C118.528 56.416 118.208 56.96 117.696 57.376C117.184 57.792 116.592 58 115.92 58H103.824L104.616 54.088H113.496C113.624 54.088 113.736 54.048 113.832 53.968C113.944 53.872 114.016 53.76 114.048 53.632L114.504 51.4C114.536 51.224 114.496 51.072 114.384 50.944C114.272 50.8 114.128 50.728 113.952 50.728H106.104L106.776 47.368H113.592ZM120.675 58L121.467 54.088H124.587L123.819 58H120.675ZM140.142 41.2C140.574 41.2 140.974 41.296 141.342 41.488C141.726 41.664 142.046 41.912 142.302 42.232C142.558 42.536 142.742 42.888 142.854 43.288C142.966 43.688 142.974 44.104 142.878 44.536L140.646 55.744C140.518 56.416 140.19 56.96 139.662 57.376C139.15 57.792 138.558 58 137.886 58H128.382C127.934 58 127.518 57.912 127.134 57.736C126.766 57.544 126.454 57.296 126.198 56.992C125.958 56.672 125.782 56.312 125.67 55.912C125.558 55.496 125.542 55.072 125.622 54.64L127.878 43.456C128.006 42.784 128.326 42.24 128.838 41.824C129.35 41.408 129.942 41.2 130.614 41.2H140.142ZM131.046 53.872C131.158 54.016 131.302 54.088 131.478 54.088H135.486C135.774 54.088 135.958 53.936 136.038 53.632L137.598 45.784C137.63 45.608 137.59 45.456 137.478 45.328C137.366 45.184 137.222 45.112 137.046 45.112H133.038C132.91 45.112 132.79 45.16 132.678 45.256C132.582 45.336 132.518 45.44 132.486 45.568L130.926 53.416C130.894 53.592 130.934 53.744 131.046 53.872ZM148.774 47.368H154.438L154.726 45.856C154.758 45.664 154.71 45.496 154.582 45.352C154.47 45.192 154.318 45.112 154.126 45.112H146.278L147.07 41.2H157.294C157.726 41.2 158.126 41.296 158.494 41.488C158.878 41.664 159.198 41.912 159.454 42.232C159.71 42.536 159.894 42.888 160.006 43.288C160.118 43.688 160.126 44.104 160.03 44.536L158.734 50.728H150.862C150.734 50.728 150.614 50.768 150.502 50.848C150.406 50.928 150.342 51.032 150.31 51.16L149.734 54.088H158.734L157.966 58H143.902L145.486 50.08C145.566 49.68 145.702 49.32 145.894 49C146.102 48.664 146.35 48.376 146.638 48.136C146.926 47.896 147.254 47.712 147.622 47.584C147.99 47.44 148.374 47.368 148.774 47.368ZM163.866 51.544C163.482 51.368 163.162 51.128 162.906 50.824C162.65 50.52 162.466 50.176 162.354 49.792C162.242 49.392 162.226 48.976 162.306 48.544L163.362 43.432C163.49 42.776 163.81 42.24 164.322 41.824C164.834 41.408 165.426 41.2 166.098 41.2H174.45C174.882 41.2 175.282 41.296 175.65 41.488C176.034 41.664 176.354 41.912 176.61 42.232C176.866 42.536 177.05 42.888 177.162 43.288C177.274 43.688 177.282 44.104 177.186 44.536L174.954 55.744C174.826 56.416 174.498 56.96 173.97 57.376C173.458 57.792 172.866 58 172.194 58H161.058L161.85 54.088H169.794C170.098 54.088 170.274 53.936 170.322 53.632L170.682 51.832H165.066C164.634 51.832 164.234 51.736 163.866 51.544ZM167.61 48.256C167.722 48.4 167.866 48.472 168.042 48.472H171.354L171.906 45.784C171.938 45.608 171.898 45.456 171.786 45.328C171.674 45.184 171.53 45.112 171.354 45.112H168.522C168.394 45.112 168.274 45.16 168.162 45.256C168.066 45.336 168.002 45.44 167.97 45.568L167.49 47.8C167.458 47.976 167.498 48.128 167.61 48.256Z" fill="#4CCBC9"/>
<path d="M1017.5 245H994L864 267.5" stroke="url(#paint7_linear_51_172)" stroke-width="2"/>
<g filter="url(#filter2_d_51_172)">
<rect x="1010" y="189" width="232" height="111" rx="5" fill="#020722" shape-rendering="crispEdges"/>
<rect x="1009" y="188" width="234" height="113" rx="6" stroke="url(#paint8_linear_51_172)" stroke-width="2" shape-rendering="crispEdges"/>
</g>
<path d="M1044.82 266.16C1043.97 266.16 1043.21 265.989 1042.53 265.648C1041.85 265.296 1041.3 264.779 1040.9 264.096C1040.5 263.413 1040.3 262.56 1040.3 261.536C1040.31 260.533 1040.52 259.68 1040.91 258.976C1041.31 258.272 1041.85 257.739 1042.53 257.376C1043.21 257.013 1043.99 256.832 1044.86 256.832C1045.7 256.832 1046.41 256.981 1046.99 257.28C1047.58 257.579 1048.05 257.984 1048.4 258.496C1048.76 259.008 1049 259.584 1049.1 260.224H1047.42C1047.35 259.755 1047.17 259.387 1046.9 259.12C1046.63 258.843 1046.31 258.651 1045.95 258.544C1045.59 258.427 1045.23 258.368 1044.86 258.368C1043.91 258.368 1043.18 258.635 1042.67 259.168C1042.17 259.701 1041.92 260.453 1041.92 261.424C1041.92 262.459 1042.17 263.253 1042.66 263.808C1043.16 264.363 1043.88 264.64 1044.83 264.64C1045.23 264.64 1045.61 264.581 1045.98 264.464C1046.36 264.336 1046.68 264.133 1046.94 263.856C1047.21 263.568 1047.38 263.184 1047.46 262.704H1049.15C1049.03 263.365 1048.79 263.957 1048.43 264.48C1048.08 264.992 1047.6 265.403 1046.99 265.712C1046.39 266.011 1045.67 266.16 1044.82 266.16ZM1049.93 266L1052.81 256.992H1055.48L1058.44 266H1056.7L1055.93 263.456H1052.43L1051.66 266H1049.93ZM1054.17 257.68L1052.81 262.192H1055.55L1054.17 257.68ZM1059.58 266V256.992H1062.9C1064.06 256.992 1064.96 257.189 1065.62 257.584C1066.27 257.968 1066.59 258.651 1066.59 259.632C1066.59 260.368 1066.42 260.965 1066.06 261.424C1065.71 261.872 1065.2 262.096 1064.54 262.096C1064.92 262.096 1065.19 262.181 1065.38 262.352C1065.57 262.512 1065.7 262.715 1065.78 262.96C1065.85 263.205 1065.9 263.461 1065.94 263.728C1065.97 263.995 1066 264.235 1066.05 264.448C1066.1 264.651 1066.2 264.795 1066.34 264.88C1066.48 264.965 1066.71 264.949 1067.02 264.832V265.776C1066.82 265.947 1066.58 266.059 1066.3 266.112C1066.03 266.176 1065.75 266.16 1065.49 266.064C1065.22 265.968 1065 265.781 1064.82 265.504C1064.63 265.216 1064.54 264.816 1064.54 264.304C1064.54 263.835 1064.52 263.461 1064.46 263.184C1064.41 262.896 1064.28 262.683 1064.06 262.544C1063.85 262.395 1063.52 262.304 1063.07 262.272C1062.62 262.229 1062 262.229 1061.22 262.272V266H1059.58ZM1061.22 261.088H1062.83C1063.35 261.088 1063.79 261.067 1064.13 261.024C1064.47 260.971 1064.72 260.853 1064.88 260.672C1065.05 260.48 1065.14 260.176 1065.14 259.76C1065.14 259.301 1065.03 258.971 1064.83 258.768C1064.63 258.565 1064.33 258.443 1063.94 258.4C1063.55 258.347 1063.08 258.32 1062.51 258.32H1061.22V261.088ZM1068.44 266V256.992H1072.01C1072.34 256.992 1072.7 257.013 1073.1 257.056C1073.5 257.099 1073.89 257.195 1074.27 257.344C1074.64 257.493 1074.94 257.728 1075.18 258.048C1075.42 258.368 1075.55 258.811 1075.55 259.376C1075.55 259.717 1075.48 260.032 1075.34 260.32C1075.21 260.608 1074.97 260.848 1074.6 261.04C1074.25 261.221 1073.74 261.328 1073.08 261.36V261.408C1073.85 261.429 1074.44 261.541 1074.86 261.744C1075.27 261.936 1075.56 262.192 1075.72 262.512C1075.88 262.832 1075.96 263.189 1075.96 263.584C1075.96 264.16 1075.83 264.613 1075.58 264.944C1075.32 265.264 1074.99 265.504 1074.59 265.664C1074.18 265.813 1073.75 265.909 1073.31 265.952C1072.87 265.984 1072.46 266 1072.09 266H1068.44ZM1070.04 260.736H1071.82C1072.19 260.736 1072.54 260.715 1072.86 260.672C1073.19 260.629 1073.45 260.528 1073.64 260.368C1073.83 260.197 1073.93 259.925 1073.93 259.552C1073.93 259.157 1073.83 258.875 1073.63 258.704C1073.43 258.533 1073.18 258.427 1072.86 258.384C1072.54 258.341 1072.19 258.32 1071.82 258.32H1070.04V260.736ZM1070.06 264.688H1071.96C1072.38 264.688 1072.76 264.661 1073.11 264.608C1073.47 264.555 1073.75 264.437 1073.96 264.256C1074.18 264.064 1074.28 263.765 1074.28 263.36C1074.28 262.944 1074.17 262.64 1073.95 262.448C1073.72 262.245 1073.43 262.117 1073.07 262.064C1072.7 262.011 1072.3 261.984 1071.87 261.984H1070.06V264.688ZM1081.28 266.224C1079.83 266.224 1078.72 265.803 1077.96 264.96C1077.19 264.107 1076.8 262.96 1076.8 261.52C1076.8 260.571 1076.97 259.749 1077.3 259.056C1077.63 258.352 1078.13 257.808 1078.79 257.424C1079.46 257.029 1080.29 256.832 1081.28 256.832C1082.76 256.832 1083.87 257.259 1084.63 258.112C1085.38 258.955 1085.76 260.091 1085.76 261.52C1085.76 262.448 1085.59 263.269 1085.25 263.984C1084.91 264.688 1084.41 265.237 1083.75 265.632C1083.09 266.027 1082.26 266.224 1081.28 266.224ZM1081.27 264.656C1082.23 264.656 1082.95 264.357 1083.43 263.76C1083.92 263.163 1084.16 262.416 1084.16 261.52C1084.16 260.912 1084.06 260.373 1083.84 259.904C1083.63 259.424 1083.31 259.051 1082.88 258.784C1082.46 258.507 1081.92 258.368 1081.27 258.368C1080.33 258.368 1079.61 258.656 1079.12 259.232C1078.63 259.808 1078.39 260.571 1078.39 261.52C1078.39 262.107 1078.49 262.64 1078.69 263.12C1078.9 263.589 1079.22 263.963 1079.65 264.24C1080.08 264.517 1080.62 264.656 1081.27 264.656ZM1093.4 256.992H1095.1V266H1091.99L1088.9 257.712H1088.87V266H1087.19V256.992H1090.07L1093.37 265.28H1093.4V256.992ZM1104.27 266.224C1102.82 266.224 1101.71 265.803 1100.94 264.96C1100.17 264.107 1099.79 262.96 1099.79 261.52C1099.79 260.571 1099.95 259.749 1100.28 259.056C1100.61 258.352 1101.11 257.808 1101.77 257.424C1102.44 257.029 1103.28 256.832 1104.27 256.832C1105.74 256.832 1106.85 257.259 1107.61 258.112C1108.37 258.955 1108.75 260.091 1108.75 261.52C1108.75 262.448 1108.58 263.269 1108.24 263.984C1107.89 264.688 1107.39 265.237 1106.73 265.632C1106.07 266.027 1105.25 266.224 1104.27 266.224ZM1104.25 264.656C1105.21 264.656 1105.93 264.357 1106.41 263.76C1106.9 263.163 1107.15 262.416 1107.15 261.52C1107.15 260.912 1107.04 260.373 1106.83 259.904C1106.61 259.424 1106.29 259.051 1105.87 258.784C1105.44 258.507 1104.9 258.368 1104.25 258.368C1103.31 258.368 1102.6 258.656 1102.11 259.232C1101.62 259.808 1101.37 260.571 1101.37 261.52C1101.37 262.107 1101.47 262.64 1101.68 263.12C1101.89 263.589 1102.21 263.963 1102.64 264.24C1103.06 264.517 1103.6 264.656 1104.25 264.656ZM1111.94 266H1110.34V256.992H1116.75V258.4H1111.94V260.608H1115.62V261.936H1111.94V266ZM1119.62 266H1118.02V256.992H1124.44V258.4H1119.62V260.608H1123.3V261.936H1119.62V266ZM1128.98 266.176C1128.49 266.176 1128 266.117 1127.52 266C1127.05 265.883 1126.63 265.701 1126.24 265.456C1125.86 265.211 1125.55 264.891 1125.33 264.496C1125.11 264.091 1124.99 263.605 1124.98 263.04H1126.63C1126.63 263.093 1126.65 263.211 1126.69 263.392C1126.73 263.563 1126.83 263.749 1126.98 263.952C1127.14 264.155 1127.38 264.331 1127.71 264.48C1128.06 264.629 1128.51 264.704 1129.09 264.704C1129.72 264.704 1130.18 264.587 1130.48 264.352C1130.79 264.117 1130.95 263.867 1130.95 263.6C1130.95 263.301 1130.84 263.067 1130.63 262.896C1130.42 262.715 1130.15 262.571 1129.79 262.464C1129.45 262.347 1129.07 262.24 1128.66 262.144C1128.25 262.048 1127.84 261.941 1127.43 261.824C1127.02 261.696 1126.65 261.531 1126.31 261.328C1125.98 261.115 1125.71 260.843 1125.52 260.512C1125.33 260.181 1125.25 259.76 1125.27 259.248C1125.32 258.491 1125.68 257.899 1126.35 257.472C1127.03 257.045 1127.92 256.832 1129.03 256.832C1129.67 256.832 1130.26 256.949 1130.8 257.184C1131.36 257.408 1131.8 257.749 1132.13 258.208C1132.47 258.656 1132.64 259.232 1132.64 259.936H1131.06C1131.06 259.605 1130.98 259.339 1130.83 259.136C1130.69 258.923 1130.49 258.763 1130.26 258.656C1130.03 258.539 1129.79 258.464 1129.54 258.432C1129.28 258.389 1129.05 258.368 1128.85 258.368C1128.32 258.368 1127.87 258.459 1127.52 258.64C1127.18 258.821 1127.01 259.088 1127.01 259.44C1127 259.739 1127.1 259.979 1127.31 260.16C1127.53 260.341 1127.81 260.485 1128.16 260.592C1128.51 260.699 1128.9 260.795 1129.31 260.88C1129.73 260.965 1130.15 261.072 1130.56 261.2C1130.98 261.317 1131.36 261.477 1131.7 261.68C1132.04 261.872 1132.31 262.139 1132.5 262.48C1132.69 262.811 1132.77 263.243 1132.74 263.776C1132.7 264.533 1132.33 265.125 1131.63 265.552C1130.94 265.968 1130.06 266.176 1128.98 266.176ZM1135.9 264.688H1140.88V266H1134.29V256.992H1140.72V258.4H1135.9V260.768H1139.6V262.112H1135.9V264.688ZM1141.61 258.4V256.992H1148.57V258.4H1145.9V266H1144.27V258.4H1141.61ZM1156.1 269.184C1156.1 269.184 1156 269.099 1155.78 268.928C1155.58 268.757 1155.32 268.501 1155.02 268.16C1154.72 267.829 1154.41 267.408 1154.1 266.896C1153.8 266.384 1153.55 265.787 1153.35 265.104C1153.15 264.421 1153.05 263.653 1153.05 262.8C1153.05 261.936 1153.15 261.163 1153.35 260.48C1153.55 259.787 1153.8 259.184 1154.1 258.672C1154.41 258.16 1154.72 257.733 1155.02 257.392C1155.32 257.04 1155.58 256.779 1155.78 256.608C1156 256.437 1156.1 256.352 1156.1 256.352L1157.37 257.616C1157.32 257.648 1157.19 257.739 1156.95 257.888C1156.73 258.027 1156.46 258.235 1156.14 258.512C1155.83 258.779 1155.52 259.115 1155.21 259.52C1154.9 259.915 1154.64 260.384 1154.44 260.928C1154.24 261.472 1154.14 262.096 1154.14 262.8C1154.14 263.515 1154.24 264.149 1154.46 264.704C1154.68 265.259 1154.95 265.733 1155.27 266.128C1155.59 266.533 1155.91 266.864 1156.23 267.12C1156.55 267.376 1156.82 267.568 1157.03 267.696C1157.26 267.824 1157.37 267.888 1157.37 267.888L1156.1 269.184ZM1158.85 266V256.992H1160.48V261.248L1164.47 256.992H1166.6V257.184L1163.03 260.624L1166.79 265.808V266H1164.92L1161.84 261.76L1160.48 263.072V266H1158.85ZM1171.7 266.176C1170.83 266.176 1170.06 266 1169.4 265.648C1168.75 265.296 1168.25 264.779 1167.89 264.096C1167.54 263.403 1167.38 262.555 1167.4 261.552C1167.41 260.539 1167.61 259.68 1167.99 258.976C1168.39 258.272 1168.92 257.739 1169.61 257.376C1170.29 257.013 1171.08 256.832 1171.97 256.832C1173.2 256.832 1174.15 257.099 1174.82 257.632C1175.49 258.165 1175.94 258.939 1176.17 259.952L1174.6 260.176C1174.44 259.504 1174.11 259.035 1173.61 258.768C1173.12 258.501 1172.57 258.368 1171.97 258.368C1170.95 258.368 1170.2 258.645 1169.72 259.2C1169.25 259.755 1169.01 260.496 1169 261.424C1169 262.448 1169.27 263.237 1169.81 263.792C1170.36 264.336 1171.14 264.608 1172.15 264.608C1172.77 264.608 1173.33 264.464 1173.83 264.176C1174.33 263.877 1174.66 263.403 1174.81 262.752H1172.82V261.552H1176.34V266H1175.24L1174.87 264.432H1174.84C1174.73 264.699 1174.55 264.965 1174.28 265.232C1174.02 265.499 1173.68 265.723 1173.25 265.904C1172.83 266.085 1172.31 266.176 1171.7 266.176ZM1178.38 269.184L1177.11 267.888C1177.11 267.888 1177.22 267.824 1177.43 267.696C1177.66 267.568 1177.93 267.376 1178.25 267.12C1178.57 266.864 1178.89 266.533 1179.21 266.128C1179.53 265.733 1179.79 265.259 1180.01 264.704C1180.23 264.149 1180.34 263.515 1180.34 262.8C1180.34 262.096 1180.24 261.472 1180.04 260.928C1179.84 260.384 1179.58 259.915 1179.27 259.52C1178.96 259.115 1178.65 258.779 1178.33 258.512C1178.02 258.235 1177.75 258.027 1177.51 257.888C1177.29 257.739 1177.15 257.648 1177.11 257.616L1178.38 256.352C1178.38 256.352 1178.48 256.437 1178.68 256.608C1178.89 256.779 1179.15 257.04 1179.45 257.392C1179.76 257.733 1180.06 258.16 1180.36 258.672C1180.67 259.184 1180.92 259.787 1181.13 260.48C1181.33 261.163 1181.43 261.936 1181.43 262.8C1181.43 263.653 1181.33 264.421 1181.13 265.104C1180.92 265.787 1180.67 266.384 1180.36 266.896C1180.06 267.408 1179.76 267.829 1179.45 268.16C1179.15 268.501 1178.89 268.757 1178.68 268.928C1178.48 269.099 1178.38 269.184 1178.38 269.184Z" fill="#A8ADC3"/>
<path d="M1048.23 224.288C1048.34 224.688 1048.35 225.104 1048.26 225.536L1045.57 239H1040.53L1043.12 226.112H1040.48L1041.27 222.2H1045.52C1045.97 222.2 1046.38 222.296 1046.74 222.488C1047.13 222.664 1047.44 222.912 1047.68 223.232C1047.94 223.536 1048.12 223.888 1048.23 224.288ZM1063.86 222.2C1064.29 222.2 1064.69 222.296 1065.06 222.488C1065.44 222.664 1065.76 222.912 1066.02 223.232C1066.28 223.536 1066.46 223.888 1066.57 224.288C1066.68 224.688 1066.69 225.104 1066.6 225.536L1064.36 236.744C1064.24 237.416 1063.91 237.96 1063.38 238.376C1062.87 238.792 1062.28 239 1061.6 239H1052.1C1051.65 239 1051.24 238.912 1050.85 238.736C1050.48 238.544 1050.17 238.296 1049.92 237.992C1049.68 237.672 1049.5 237.312 1049.39 236.912C1049.28 236.496 1049.26 236.072 1049.34 235.64L1051.6 224.456C1051.72 223.784 1052.04 223.24 1052.56 222.824C1053.07 222.408 1053.66 222.2 1054.33 222.2H1063.86ZM1054.76 234.872C1054.88 235.016 1055.02 235.088 1055.2 235.088H1059.2C1059.49 235.088 1059.68 234.936 1059.76 234.632L1061.32 226.784C1061.35 226.608 1061.31 226.456 1061.2 226.328C1061.08 226.184 1060.94 226.112 1060.76 226.112H1056.76C1056.63 226.112 1056.51 226.16 1056.4 226.256C1056.3 226.336 1056.24 226.44 1056.2 226.568L1054.64 234.416C1054.61 234.592 1054.65 234.744 1054.76 234.872ZM1066.82 235.64L1067.59 231.848C1067.7 231.32 1067.96 230.888 1068.36 230.552C1068.78 230.216 1069.26 230.048 1069.8 230.048H1071.24C1070.89 230.048 1070.56 229.976 1070.26 229.832C1069.97 229.672 1069.72 229.472 1069.51 229.232C1069.3 228.976 1069.16 228.688 1069.08 228.368C1069 228.048 1068.99 227.712 1069.06 227.36L1069.63 224.456C1069.76 223.784 1070.08 223.24 1070.59 222.824C1071.1 222.408 1071.7 222.2 1072.37 222.2H1081.22C1081.67 222.2 1082.08 222.296 1082.45 222.488C1082.83 222.664 1083.14 222.912 1083.38 223.232C1083.64 223.536 1083.82 223.888 1083.94 224.288C1084.05 224.688 1084.06 225.104 1083.98 225.536L1083.43 228.248C1083.32 228.76 1083.06 229.192 1082.64 229.544C1082.24 229.88 1081.78 230.048 1081.25 230.048H1081.75C1082.1 230.048 1082.42 230.128 1082.71 230.288C1083.02 230.432 1083.27 230.632 1083.48 230.888C1083.69 231.128 1083.83 231.408 1083.91 231.728C1084.01 232.048 1084.02 232.376 1083.94 232.712L1083.14 236.744C1083.02 237.416 1082.69 237.96 1082.16 238.376C1081.65 238.792 1081.06 239 1080.38 239H1069.58C1069.14 239 1068.72 238.912 1068.34 238.736C1067.97 238.544 1067.66 238.296 1067.4 237.992C1067.16 237.672 1066.98 237.312 1066.87 236.912C1066.76 236.496 1066.74 236.072 1066.82 235.64ZM1072.25 234.872C1072.36 235.016 1072.5 235.088 1072.68 235.088H1077.96C1078.09 235.088 1078.2 235.048 1078.3 234.968C1078.41 234.872 1078.48 234.76 1078.51 234.632L1078.97 232.4C1079 232.224 1078.96 232.072 1078.85 231.944C1078.74 231.8 1078.59 231.728 1078.42 231.728H1073.11C1072.82 231.728 1072.64 231.872 1072.56 232.16L1072.13 234.416C1072.1 234.592 1072.14 234.744 1072.25 234.872ZM1074.14 228.152C1074.26 228.296 1074.4 228.368 1074.58 228.368H1077.91C1078.04 228.368 1078.15 228.328 1078.25 228.248C1078.36 228.152 1078.43 228.04 1078.46 227.912L1078.68 226.784C1078.71 226.608 1078.67 226.456 1078.56 226.328C1078.45 226.184 1078.3 226.112 1078.13 226.112H1074.79C1074.5 226.112 1074.32 226.264 1074.24 226.568L1074.02 227.696C1073.99 227.872 1074.03 228.024 1074.14 228.152ZM1084.99 239L1085.78 235.088H1088.9L1088.13 239H1084.99ZM1104.45 222.2C1104.89 222.2 1105.29 222.296 1105.65 222.488C1106.04 222.664 1106.36 222.912 1106.61 223.232C1106.87 223.536 1107.05 223.888 1107.17 224.288C1107.28 224.688 1107.29 225.104 1107.19 225.536L1104.96 236.744C1104.83 237.416 1104.5 237.96 1103.97 238.376C1103.46 238.792 1102.87 239 1102.2 239H1092.69C1092.25 239 1091.83 238.912 1091.45 238.736C1091.08 238.544 1090.77 238.296 1090.51 237.992C1090.27 237.672 1090.09 237.312 1089.98 236.912C1089.87 236.496 1089.85 236.072 1089.93 235.64L1092.19 224.456C1092.32 223.784 1092.64 223.24 1093.15 222.824C1093.66 222.408 1094.25 222.2 1094.93 222.2H1104.45ZM1095.36 234.872C1095.47 235.016 1095.61 235.088 1095.79 235.088H1099.8C1100.09 235.088 1100.27 234.936 1100.35 234.632L1101.91 226.784C1101.94 226.608 1101.9 226.456 1101.79 226.328C1101.68 226.184 1101.53 226.112 1101.36 226.112H1097.35C1097.22 226.112 1097.1 226.16 1096.99 226.256C1096.89 226.336 1096.83 226.44 1096.8 226.568L1095.24 234.416C1095.21 234.592 1095.25 234.744 1095.36 234.872ZM1113.09 228.368H1118.75L1119.04 226.856C1119.07 226.664 1119.02 226.496 1118.89 226.352C1118.78 226.192 1118.63 226.112 1118.44 226.112H1110.59L1111.38 222.2H1121.61C1122.04 222.2 1122.44 222.296 1122.81 222.488C1123.19 222.664 1123.51 222.912 1123.77 223.232C1124.02 223.536 1124.21 223.888 1124.32 224.288C1124.43 224.688 1124.44 225.104 1124.34 225.536L1123.05 231.728H1115.17C1115.05 231.728 1114.93 231.768 1114.81 231.848C1114.72 231.928 1114.65 232.032 1114.62 232.16L1114.05 235.088H1123.05L1122.28 239H1108.21L1109.8 231.08C1109.88 230.68 1110.01 230.32 1110.21 230C1110.41 229.664 1110.66 229.376 1110.95 229.136C1111.24 228.896 1111.57 228.712 1111.93 228.584C1112.3 228.44 1112.69 228.368 1113.09 228.368ZM1128.18 232.544C1127.79 232.368 1127.47 232.128 1127.22 231.824C1126.96 231.52 1126.78 231.176 1126.67 230.792C1126.55 230.392 1126.54 229.976 1126.62 229.544L1127.67 224.432C1127.8 223.776 1128.12 223.24 1128.63 222.824C1129.15 222.408 1129.74 222.2 1130.41 222.2H1138.76C1139.19 222.2 1139.59 222.296 1139.96 222.488C1140.35 222.664 1140.67 222.912 1140.92 223.232C1141.18 223.536 1141.36 223.888 1141.47 224.288C1141.59 224.688 1141.59 225.104 1141.5 225.536L1139.27 236.744C1139.14 237.416 1138.81 237.96 1138.28 238.376C1137.77 238.792 1137.18 239 1136.51 239H1125.37L1126.16 235.088H1134.11C1134.41 235.088 1134.59 234.936 1134.63 234.632L1134.99 232.832H1129.38C1128.95 232.832 1128.55 232.736 1128.18 232.544ZM1131.92 229.256C1132.03 229.4 1132.18 229.472 1132.35 229.472H1135.67L1136.22 226.784C1136.25 226.608 1136.21 226.456 1136.1 226.328C1135.99 226.184 1135.84 226.112 1135.67 226.112H1132.83C1132.71 226.112 1132.59 226.16 1132.47 226.256C1132.38 226.336 1132.31 226.44 1132.28 226.568L1131.8 228.8C1131.77 228.976 1131.81 229.128 1131.92 229.256ZM1142.55 241.136L1143.75 235.088H1146.89L1144.13 241.808H1143.08C1142.9 241.808 1142.76 241.736 1142.65 241.592C1142.55 241.464 1142.52 241.312 1142.55 241.136ZM1157.62 228.368C1157.74 228.368 1157.86 228.328 1157.95 228.248C1158.06 228.152 1158.14 228.04 1158.17 227.912L1158.38 226.784C1158.42 226.608 1158.38 226.456 1158.26 226.328C1158.15 226.184 1158.01 226.112 1157.83 226.112H1149.82L1150.61 222.2H1160.93C1161.38 222.2 1161.78 222.296 1162.15 222.488C1162.54 222.664 1162.85 222.912 1163.09 223.232C1163.34 223.536 1163.53 223.888 1163.64 224.288C1163.75 224.688 1163.77 225.104 1163.69 225.536L1163.14 228.248C1163.04 228.76 1162.78 229.192 1162.37 229.544C1161.95 229.88 1161.48 230.048 1160.95 230.048H1161.31C1161.66 230.048 1161.98 230.128 1162.27 230.288C1162.58 230.432 1162.83 230.632 1163.04 230.888C1163.25 231.128 1163.39 231.408 1163.47 231.728C1163.57 232.048 1163.58 232.376 1163.5 232.712L1162.68 236.744C1162.55 237.416 1162.23 237.96 1161.72 238.376C1161.21 238.792 1160.62 239 1159.94 239H1147.85L1148.64 235.088H1157.52C1157.65 235.088 1157.76 235.048 1157.86 234.968C1157.97 234.872 1158.04 234.76 1158.07 234.632L1158.53 232.4C1158.56 232.224 1158.52 232.072 1158.41 231.944C1158.3 231.8 1158.15 231.728 1157.98 231.728H1150.13L1150.8 228.368H1157.62ZM1169.57 228.368H1175.23L1175.52 226.856C1175.55 226.664 1175.51 226.496 1175.38 226.352C1175.27 226.192 1175.11 226.112 1174.92 226.112H1167.07L1167.87 222.2H1178.09C1178.52 222.2 1178.92 222.296 1179.29 222.488C1179.67 222.664 1179.99 222.912 1180.25 223.232C1180.51 223.536 1180.69 223.888 1180.8 224.288C1180.91 224.688 1180.92 225.104 1180.83 225.536L1179.53 231.728H1171.66C1171.53 231.728 1171.41 231.768 1171.3 231.848C1171.2 231.928 1171.14 232.032 1171.11 232.16L1170.53 235.088H1179.53L1178.76 239H1164.7L1166.28 231.08C1166.36 230.68 1166.5 230.32 1166.69 230C1166.9 229.664 1167.15 229.376 1167.43 229.136C1167.72 228.896 1168.05 228.712 1168.42 228.584C1168.79 228.44 1169.17 228.368 1169.57 228.368Z" fill="#4CCBC9"/>
<g filter="url(#filter3_d_51_172)">
<rect x="12" y="202" width="232" height="111" rx="5" fill="#020722" shape-rendering="crispEdges"/>
<rect x="11" y="201" width="234" height="113" rx="6" stroke="url(#paint9_linear_51_172)" stroke-width="2" shape-rendering="crispEdges"/>
</g>
<path d="M953.5 440H930L819 364" stroke="url(#paint10_linear_51_172)" stroke-width="2"/>
<g filter="url(#filter4_d_51_172)">
<rect x="954" y="376" width="232" height="111" rx="5" fill="#020722" shape-rendering="crispEdges"/>
<rect x="953" y="375" width="234" height="113" rx="6" stroke="url(#paint11_linear_51_172)" stroke-width="2" shape-rendering="crispEdges"/>
</g>
<path d="M993.12 448.488C993.12 449.672 992.885 450.595 992.416 451.256C991.957 451.907 991.307 452.36 990.464 452.616C989.621 452.872 988.629 453 987.488 453H985.008V443.992H987.488C988.629 443.992 989.621 444.163 990.464 444.504C991.307 444.835 991.957 445.331 992.416 445.992C992.885 446.653 993.12 447.485 993.12 448.488ZM986.624 451.656H987.952C988.656 451.656 989.264 451.576 989.776 451.416C990.288 451.245 990.683 450.931 990.96 450.472C991.237 450.013 991.376 449.347 991.376 448.472C991.376 447.437 991.067 446.669 990.448 446.168C989.84 445.656 989.008 445.4 987.952 445.4H986.624V451.656ZM998.679 451.608V453H994.663V451.608H995.879V445.4H994.663V443.992H998.679V445.4H997.495V451.608H998.679ZM1004.17 453.176C1003.68 453.176 1003.19 453.117 1002.71 453C1002.24 452.883 1001.81 452.701 1001.43 452.456C1001.05 452.211 1000.74 451.891 1000.52 451.496C1000.29 451.091 1000.18 450.605 1000.17 450.04H1001.81C1001.81 450.093 1001.84 450.211 1001.88 450.392C1001.92 450.563 1002.02 450.749 1002.17 450.952C1002.33 451.155 1002.57 451.331 1002.9 451.48C1003.24 451.629 1003.7 451.704 1004.28 451.704C1004.91 451.704 1005.37 451.587 1005.67 451.352C1005.98 451.117 1006.13 450.867 1006.13 450.6C1006.13 450.301 1006.03 450.067 1005.81 449.896C1005.61 449.715 1005.33 449.571 1004.98 449.464C1004.64 449.347 1004.26 449.24 1003.85 449.144C1003.44 449.048 1003.03 448.941 1002.61 448.824C1002.21 448.696 1001.84 448.531 1001.49 448.328C1001.16 448.115 1000.9 447.843 1000.71 447.512C1000.52 447.181 1000.43 446.76 1000.45 446.248C1000.51 445.491 1000.87 444.899 1001.54 444.472C1002.21 444.045 1003.1 443.832 1004.21 443.832C1004.85 443.832 1005.45 443.949 1005.99 444.184C1006.54 444.408 1006.99 444.749 1007.32 445.208C1007.66 445.656 1007.83 446.232 1007.83 446.936H1006.25C1006.25 446.605 1006.17 446.339 1006.02 446.136C1005.87 445.923 1005.68 445.763 1005.45 445.656C1005.22 445.539 1004.98 445.464 1004.73 445.432C1004.47 445.389 1004.24 445.368 1004.04 445.368C1003.5 445.368 1003.06 445.459 1002.71 445.64C1002.37 445.821 1002.2 446.088 1002.2 446.44C1002.19 446.739 1002.29 446.979 1002.5 447.16C1002.72 447.341 1003 447.485 1003.35 447.592C1003.7 447.699 1004.09 447.795 1004.5 447.88C1004.92 447.965 1005.33 448.072 1005.75 448.2C1006.17 448.317 1006.54 448.477 1006.89 448.68C1007.23 448.872 1007.49 449.139 1007.69 449.48C1007.88 449.811 1007.96 450.243 1007.93 450.776C1007.88 451.533 1007.52 452.125 1006.82 452.552C1006.13 452.968 1005.24 453.176 1004.17 453.176ZM1008.79 445.4V443.992H1015.75V445.4H1013.07V453H1011.44V445.4H1008.79ZM1015.77 453L1018.65 443.992H1021.32L1024.28 453H1022.54L1021.77 450.456H1018.27L1017.5 453H1015.77ZM1020.01 444.68L1018.65 449.192H1021.39L1020.01 444.68ZM1031.62 443.992H1033.32V453H1030.21L1027.12 444.712H1027.09V453H1025.41V443.992H1028.29L1031.59 452.28H1031.62V443.992ZM1039.05 453.16C1038.21 453.16 1037.45 452.989 1036.76 452.648C1036.08 452.296 1035.54 451.779 1035.13 451.096C1034.74 450.413 1034.54 449.56 1034.54 448.536C1034.55 447.533 1034.75 446.68 1035.15 445.976C1035.54 445.272 1036.08 444.739 1036.76 444.376C1037.45 444.013 1038.22 443.832 1039.1 443.832C1039.93 443.832 1040.64 443.981 1041.23 444.28C1041.81 444.579 1042.28 444.984 1042.63 445.496C1043 446.008 1043.23 446.584 1043.34 447.224H1041.66C1041.58 446.755 1041.41 446.387 1041.13 446.12C1040.86 445.843 1040.55 445.651 1040.19 445.544C1039.82 445.427 1039.46 445.368 1039.1 445.368C1038.15 445.368 1037.42 445.635 1036.91 446.168C1036.41 446.701 1036.15 447.453 1036.15 448.424C1036.15 449.459 1036.4 450.253 1036.89 450.808C1037.39 451.363 1038.12 451.64 1039.07 451.64C1039.46 451.64 1039.85 451.581 1040.22 451.464C1040.59 451.336 1040.91 451.133 1041.18 450.856C1041.45 450.568 1041.62 450.184 1041.69 449.704H1043.39C1043.27 450.365 1043.03 450.957 1042.67 451.48C1042.31 451.992 1041.83 452.403 1041.23 452.712C1040.63 453.011 1039.9 453.16 1039.05 453.16ZM1046.32 451.688H1051.3V453H1044.71V443.992H1051.14V445.4H1046.32V447.768H1050.02V449.112H1046.32V451.688ZM1056.26 453V443.992H1059.57C1060.73 443.992 1061.64 444.189 1062.29 444.584C1062.94 444.968 1063.26 445.651 1063.26 446.632C1063.26 447.368 1063.09 447.965 1062.74 448.424C1062.38 448.872 1061.88 449.096 1061.22 449.096C1061.59 449.096 1061.87 449.181 1062.05 449.352C1062.24 449.512 1062.37 449.715 1062.45 449.96C1062.52 450.205 1062.58 450.461 1062.61 450.728C1062.64 450.995 1062.68 451.235 1062.72 451.448C1062.77 451.651 1062.87 451.795 1063.01 451.88C1063.16 451.965 1063.39 451.949 1063.7 451.832V452.776C1063.49 452.947 1063.25 453.059 1062.98 453.112C1062.7 453.176 1062.43 453.16 1062.16 453.064C1061.89 452.968 1061.67 452.781 1061.49 452.504C1061.31 452.216 1061.22 451.816 1061.22 451.304C1061.22 450.835 1061.19 450.461 1061.14 450.184C1061.08 449.896 1060.95 449.683 1060.74 449.544C1060.52 449.395 1060.19 449.304 1059.74 449.272C1059.3 449.229 1058.68 449.229 1057.89 449.272V453H1056.26ZM1057.89 448.088H1059.5C1060.03 448.088 1060.46 448.067 1060.8 448.024C1061.14 447.971 1061.39 447.853 1061.55 447.672C1061.72 447.48 1061.81 447.176 1061.81 446.76C1061.81 446.301 1061.71 445.971 1061.5 445.768C1061.3 445.565 1061 445.443 1060.61 445.4C1060.22 445.347 1059.75 445.32 1059.18 445.32H1057.89V448.088ZM1069 453.224C1067.72 453.224 1066.75 452.872 1066.07 452.168C1065.41 451.453 1065.08 450.451 1065.08 449.16V443.992H1066.83V449.144C1066.83 449.805 1066.93 450.317 1067.15 450.68C1067.36 451.043 1067.63 451.299 1067.96 451.448C1068.29 451.597 1068.64 451.672 1069 451.672C1069.41 451.672 1069.78 451.603 1070.11 451.464C1070.44 451.315 1070.7 451.059 1070.89 450.696C1071.09 450.333 1071.19 449.816 1071.19 449.144V443.992H1072.92V449.16C1072.92 450.472 1072.59 451.48 1071.93 452.184C1071.28 452.877 1070.3 453.224 1069 453.224ZM1080.84 443.992H1082.53V453H1079.43L1076.34 444.712H1076.31V453H1074.63V443.992H1077.51L1080.81 452.28H1080.84V443.992ZM1090.67 456.184C1090.67 456.184 1090.56 456.099 1090.35 455.928C1090.14 455.757 1089.89 455.501 1089.58 455.16C1089.28 454.829 1088.97 454.408 1088.67 453.896C1088.37 453.384 1088.12 452.787 1087.91 452.104C1087.71 451.421 1087.61 450.653 1087.61 449.8C1087.61 448.936 1087.71 448.163 1087.91 447.48C1088.12 446.787 1088.37 446.184 1088.67 445.672C1088.97 445.16 1089.28 444.733 1089.58 444.392C1089.89 444.04 1090.14 443.779 1090.35 443.608C1090.56 443.437 1090.67 443.352 1090.67 443.352L1091.93 444.616C1091.89 444.648 1091.75 444.739 1091.51 444.888C1091.29 445.027 1091.02 445.235 1090.7 445.512C1090.39 445.779 1090.08 446.115 1089.77 446.52C1089.46 446.915 1089.2 447.384 1089 447.928C1088.8 448.472 1088.7 449.096 1088.7 449.8C1088.7 450.515 1088.8 451.149 1089.02 451.704C1089.24 452.259 1089.51 452.733 1089.83 453.128C1090.15 453.533 1090.47 453.864 1090.79 454.12C1091.11 454.376 1091.38 454.568 1091.59 454.696C1091.82 454.824 1091.93 454.888 1091.93 454.888L1090.67 456.184ZM1093.3 453V443.992H1096.15L1098.26 452.296H1098.3L1100.39 443.992H1103.22V453H1101.53L1101.64 444.728H1101.62L1099.46 453H1097.06L1094.94 444.728H1094.9L1095 453H1093.3ZM1105.47 456.184L1104.21 454.888C1104.21 454.888 1104.31 454.824 1104.53 454.696C1104.75 454.568 1105.02 454.376 1105.34 454.12C1105.66 453.864 1105.98 453.533 1106.3 453.128C1106.62 452.733 1106.89 452.259 1107.1 451.704C1107.33 451.149 1107.44 450.515 1107.44 449.8C1107.44 449.096 1107.34 448.472 1107.13 447.928C1106.93 447.384 1106.67 446.915 1106.37 446.52C1106.06 446.115 1105.74 445.779 1105.42 445.512C1105.11 445.235 1104.84 445.027 1104.61 444.888C1104.38 444.739 1104.25 444.648 1104.21 444.616L1105.47 443.352C1105.47 443.352 1105.57 443.437 1105.77 443.608C1105.99 443.779 1106.24 444.04 1106.54 444.392C1106.85 444.733 1107.15 445.16 1107.45 445.672C1107.76 446.184 1108.02 446.787 1108.22 447.48C1108.42 448.163 1108.53 448.936 1108.53 449.8C1108.53 450.653 1108.42 451.421 1108.22 452.104C1108.02 452.787 1107.76 453.384 1107.45 453.896C1107.15 454.408 1106.85 454.829 1106.54 455.16C1106.24 455.501 1105.99 455.757 1105.77 455.928C1105.57 456.099 1105.47 456.184 1105.47 456.184Z" fill="#A8ADC3"/>
<path d="M990.816 409.2L989.712 414.696C989.68 414.872 989.72 415.032 989.832 415.176C989.944 415.304 990.088 415.368 990.264 415.368H994.056C994.184 415.368 994.296 415.328 994.392 415.248C994.504 415.152 994.576 415.04 994.608 414.912L995.736 409.2H1000.78L997.416 426H992.376L993.84 418.728H987.288C986.392 418.728 985.672 418.384 985.128 417.696C984.744 417.216 984.536 416.824 984.504 416.52C984.488 416.2 984.48 415.976 984.48 415.848C984.48 415.832 984.496 415.728 984.528 415.536C984.576 415.328 984.632 415.072 984.696 414.768C984.76 414.448 984.824 414.088 984.888 413.688C984.968 413.288 985.048 412.88 985.128 412.464C985.32 411.504 985.536 410.416 985.776 409.2H990.816ZM1001.75 426L1002.55 422.088H1005.67L1004.9 426H1001.75ZM1011.52 415.368H1017.19L1017.48 413.856C1017.51 413.664 1017.46 413.496 1017.33 413.352C1017.22 413.192 1017.07 413.112 1016.88 413.112H1009.03L1009.82 409.2H1020.04C1020.48 409.2 1020.88 409.296 1021.24 409.488C1021.63 409.664 1021.95 409.912 1022.2 410.232C1022.46 410.536 1022.64 410.888 1022.76 411.288C1022.87 411.688 1022.88 412.104 1022.78 412.536L1021.48 418.728H1013.61C1013.48 418.728 1013.36 418.768 1013.25 418.848C1013.16 418.928 1013.09 419.032 1013.06 419.16L1012.48 422.088H1021.48L1020.72 426H1006.65L1008.24 418.08C1008.32 417.68 1008.45 417.32 1008.64 417C1008.85 416.664 1009.1 416.376 1009.39 416.136C1009.68 415.896 1010 415.712 1010.37 415.584C1010.74 415.44 1011.12 415.368 1011.52 415.368ZM1038.38 409.2C1038.81 409.2 1039.21 409.296 1039.58 409.488C1039.96 409.664 1040.28 409.912 1040.54 410.232C1040.79 410.536 1040.98 410.888 1041.09 411.288C1041.2 411.688 1041.21 412.104 1041.11 412.536L1038.88 423.744C1038.75 424.416 1038.42 424.96 1037.9 425.376C1037.38 425.792 1036.79 426 1036.12 426H1026.62C1026.17 426 1025.75 425.912 1025.37 425.736C1025 425.544 1024.69 425.296 1024.43 424.992C1024.19 424.672 1024.02 424.312 1023.9 423.912C1023.79 423.496 1023.78 423.072 1023.86 422.64L1026.11 411.456C1026.24 410.784 1026.56 410.24 1027.07 409.824C1027.58 409.408 1028.18 409.2 1028.85 409.2H1038.38ZM1029.28 421.872C1029.39 422.016 1029.54 422.088 1029.71 422.088H1033.72C1034.01 422.088 1034.19 421.936 1034.27 421.632L1035.83 413.784C1035.86 413.608 1035.82 413.456 1035.71 413.328C1035.6 413.184 1035.46 413.112 1035.28 413.112H1031.27C1031.14 413.112 1031.02 413.16 1030.91 413.256C1030.82 413.336 1030.75 413.44 1030.72 413.568L1029.16 421.416C1029.13 421.592 1029.17 421.744 1029.28 421.872ZM1051.9 415.368C1052.03 415.368 1052.14 415.328 1052.24 415.248C1052.35 415.152 1052.42 415.04 1052.46 414.912L1052.67 413.784C1052.7 413.608 1052.66 413.456 1052.55 413.328C1052.44 413.184 1052.3 413.112 1052.12 413.112H1044.1L1044.9 409.2H1055.22C1055.66 409.2 1056.07 409.296 1056.44 409.488C1056.82 409.664 1057.14 409.912 1057.38 410.232C1057.63 410.536 1057.82 410.888 1057.93 411.288C1058.04 411.688 1058.06 412.104 1057.98 412.536L1057.42 415.248C1057.33 415.76 1057.07 416.192 1056.66 416.544C1056.24 416.88 1055.77 417.048 1055.24 417.048H1055.6C1055.95 417.048 1056.27 417.128 1056.56 417.288C1056.86 417.432 1057.12 417.632 1057.33 417.888C1057.54 418.128 1057.68 418.408 1057.76 418.728C1057.86 419.048 1057.86 419.376 1057.78 419.712L1056.97 423.744C1056.84 424.416 1056.52 424.96 1056.01 425.376C1055.5 425.792 1054.9 426 1054.23 426H1042.14L1042.93 422.088H1051.81C1051.94 422.088 1052.05 422.048 1052.14 421.968C1052.26 421.872 1052.33 421.76 1052.36 421.632L1052.82 419.4C1052.85 419.224 1052.81 419.072 1052.7 418.944C1052.58 418.8 1052.44 418.728 1052.26 418.728H1044.42L1045.09 415.368H1051.9ZM1058.99 426L1059.78 422.088H1062.9L1062.13 426H1058.99ZM1078.45 409.2C1078.89 409.2 1079.29 409.296 1079.65 409.488C1080.04 409.664 1080.36 409.912 1080.61 410.232C1080.87 410.536 1081.05 410.888 1081.17 411.288C1081.28 411.688 1081.29 412.104 1081.19 412.536L1078.96 423.744C1078.83 424.416 1078.5 424.96 1077.97 425.376C1077.46 425.792 1076.87 426 1076.2 426H1066.69C1066.25 426 1065.83 425.912 1065.45 425.736C1065.08 425.544 1064.77 425.296 1064.51 424.992C1064.27 424.672 1064.09 424.312 1063.98 423.912C1063.87 423.496 1063.85 423.072 1063.93 422.64L1066.19 411.456C1066.32 410.784 1066.64 410.24 1067.15 409.824C1067.66 409.408 1068.25 409.2 1068.93 409.2H1078.45ZM1069.36 421.872C1069.47 422.016 1069.61 422.088 1069.79 422.088H1073.8C1074.09 422.088 1074.27 421.936 1074.35 421.632L1075.91 413.784C1075.94 413.608 1075.9 413.456 1075.79 413.328C1075.68 413.184 1075.53 413.112 1075.36 413.112H1071.35C1071.22 413.112 1071.1 413.16 1070.99 413.256C1070.89 413.336 1070.83 413.44 1070.8 413.568L1069.24 421.416C1069.21 421.592 1069.25 421.744 1069.36 421.872ZM1087.09 415.368H1092.75L1093.04 413.856C1093.07 413.664 1093.02 413.496 1092.89 413.352C1092.78 413.192 1092.63 413.112 1092.44 413.112H1084.59L1085.38 409.2H1095.61C1096.04 409.2 1096.44 409.296 1096.81 409.488C1097.19 409.664 1097.51 409.912 1097.77 410.232C1098.02 410.536 1098.21 410.888 1098.32 411.288C1098.43 411.688 1098.44 412.104 1098.34 412.536L1097.05 418.728H1089.17C1089.05 418.728 1088.93 418.768 1088.81 418.848C1088.72 418.928 1088.65 419.032 1088.62 419.16L1088.05 422.088H1097.05L1096.28 426H1082.21L1083.8 418.08C1083.88 417.68 1084.01 417.32 1084.21 417C1084.41 416.664 1084.66 416.376 1084.95 416.136C1085.24 415.896 1085.57 415.712 1085.93 415.584C1086.3 415.44 1086.69 415.368 1087.09 415.368ZM1102.18 419.544C1101.79 419.368 1101.47 419.128 1101.22 418.824C1100.96 418.52 1100.78 418.176 1100.67 417.792C1100.55 417.392 1100.54 416.976 1100.62 416.544L1101.67 411.432C1101.8 410.776 1102.12 410.24 1102.63 409.824C1103.15 409.408 1103.74 409.2 1104.41 409.2H1112.76C1113.19 409.2 1113.59 409.296 1113.96 409.488C1114.35 409.664 1114.67 409.912 1114.92 410.232C1115.18 410.536 1115.36 410.888 1115.47 411.288C1115.59 411.688 1115.59 412.104 1115.5 412.536L1113.27 423.744C1113.14 424.416 1112.81 424.96 1112.28 425.376C1111.77 425.792 1111.18 426 1110.51 426H1099.37L1100.16 422.088H1108.11C1108.41 422.088 1108.59 421.936 1108.63 421.632L1108.99 419.832H1103.38C1102.95 419.832 1102.55 419.736 1102.18 419.544ZM1105.92 416.256C1106.03 416.4 1106.18 416.472 1106.35 416.472H1109.67L1110.22 413.784C1110.25 413.608 1110.21 413.456 1110.1 413.328C1109.99 413.184 1109.84 413.112 1109.67 413.112H1106.83C1106.71 413.112 1106.59 413.16 1106.47 413.256C1106.38 413.336 1106.31 413.44 1106.28 413.568L1105.8 415.8C1105.77 415.976 1105.81 416.128 1105.92 416.256ZM1116.55 428.136L1117.75 422.088H1120.89L1118.13 428.808H1117.08C1116.9 428.808 1116.76 428.736 1116.65 428.592C1116.55 428.464 1116.52 428.312 1116.55 428.136ZM1124.66 419.544C1124.27 419.368 1123.95 419.128 1123.7 418.824C1123.44 418.52 1123.26 418.176 1123.14 417.792C1123.03 417.392 1123.02 416.976 1123.1 416.544L1124.15 411.432C1124.28 410.776 1124.6 410.24 1125.11 409.824C1125.62 409.408 1126.22 409.2 1126.89 409.2H1135.24C1135.67 409.2 1136.07 409.296 1136.44 409.488C1136.82 409.664 1137.14 409.912 1137.4 410.232C1137.66 410.536 1137.84 410.888 1137.95 411.288C1138.06 411.688 1138.07 412.104 1137.98 412.536L1135.74 423.744C1135.62 424.416 1135.29 424.96 1134.76 425.376C1134.25 425.792 1133.66 426 1132.98 426H1121.85L1122.64 422.088H1130.58C1130.89 422.088 1131.06 421.936 1131.11 421.632L1131.47 419.832H1125.86C1125.42 419.832 1125.02 419.736 1124.66 419.544ZM1128.4 416.256C1128.51 416.4 1128.66 416.472 1128.83 416.472H1132.14L1132.7 413.784C1132.73 413.608 1132.69 413.456 1132.58 413.328C1132.46 413.184 1132.32 413.112 1132.14 413.112H1129.31C1129.18 413.112 1129.06 413.16 1128.95 413.256C1128.86 413.336 1128.79 413.44 1128.76 413.568L1128.28 415.8C1128.25 415.976 1128.29 416.128 1128.4 416.256ZM1145.95 409.2L1144.84 414.696C1144.81 414.872 1144.85 415.032 1144.96 415.176C1145.08 415.304 1145.22 415.368 1145.4 415.368H1149.19C1149.32 415.368 1149.43 415.328 1149.52 415.248C1149.64 415.152 1149.71 415.04 1149.74 414.912L1150.87 409.2H1155.91L1152.55 426H1147.51L1148.97 418.728H1142.42C1141.52 418.728 1140.8 418.384 1140.26 417.696C1139.88 417.216 1139.67 416.824 1139.64 416.52C1139.62 416.2 1139.61 415.976 1139.61 415.848C1139.61 415.832 1139.63 415.728 1139.66 415.536C1139.71 415.328 1139.76 415.072 1139.83 414.768C1139.89 414.448 1139.96 414.088 1140.02 413.688C1140.1 413.288 1140.18 412.88 1140.26 412.464C1140.45 411.504 1140.67 410.416 1140.91 409.2H1145.95Z" fill="#4CCBC9"/>
<path d="M50.12 274.488C50.12 275.672 49.8853 276.595 49.416 277.256C48.9573 277.907 48.3067 278.36 47.464 278.616C46.6213 278.872 45.6293 279 44.488 279H42.008V269.992H44.488C45.6293 269.992 46.6213 270.163 47.464 270.504C48.3067 270.835 48.9573 271.331 49.416 271.992C49.8853 272.653 50.12 273.485 50.12 274.488ZM43.624 277.656H44.952C45.656 277.656 46.264 277.576 46.776 277.416C47.288 277.245 47.6827 276.931 47.96 276.472C48.2373 276.013 48.376 275.347 48.376 274.472C48.376 273.437 48.0667 272.669 47.448 272.168C46.84 271.656 46.008 271.4 44.952 271.4H43.624V277.656ZM55.6791 277.608V279H51.6631V277.608H52.8791V271.4H51.6631V269.992H55.6791V271.4H54.4951V277.608H55.6791ZM61.166 279.176C60.6753 279.176 60.19 279.117 59.71 279C59.2407 278.883 58.814 278.701 58.43 278.456C58.046 278.211 57.742 277.891 57.518 277.496C57.294 277.091 57.1767 276.605 57.166 276.04H58.814C58.814 276.093 58.8353 276.211 58.878 276.392C58.9207 276.563 59.0167 276.749 59.166 276.952C59.326 277.155 59.5713 277.331 59.902 277.48C60.2433 277.629 60.702 277.704 61.278 277.704C61.9073 277.704 62.3713 277.587 62.67 277.352C62.9793 277.117 63.134 276.867 63.134 276.6C63.134 276.301 63.0273 276.067 62.814 275.896C62.6113 275.715 62.334 275.571 61.982 275.464C61.6407 275.347 61.262 275.24 60.846 275.144C60.4407 275.048 60.03 274.941 59.614 274.824C59.2087 274.696 58.8353 274.531 58.494 274.328C58.1633 274.115 57.902 273.843 57.71 273.512C57.518 273.181 57.4327 272.76 57.454 272.248C57.5073 271.491 57.87 270.899 58.542 270.472C59.214 270.045 60.1047 269.832 61.214 269.832C61.854 269.832 62.446 269.949 62.99 270.184C63.5447 270.408 63.9873 270.749 64.318 271.208C64.6593 271.656 64.83 272.232 64.83 272.936H63.246C63.246 272.605 63.1713 272.339 63.022 272.136C62.8727 271.923 62.6807 271.763 62.446 271.656C62.222 271.539 61.982 271.464 61.726 271.432C61.47 271.389 61.2407 271.368 61.038 271.368C60.5047 271.368 60.062 271.459 59.71 271.64C59.3687 271.821 59.198 272.088 59.198 272.44C59.1873 272.739 59.2887 272.979 59.502 273.16C59.7153 273.341 59.998 273.485 60.35 273.592C60.702 273.699 61.086 273.795 61.502 273.88C61.918 273.965 62.334 274.072 62.75 274.2C63.166 274.317 63.5447 274.477 63.886 274.68C64.2273 274.872 64.494 275.139 64.686 275.48C64.878 275.811 64.958 276.243 64.926 276.776C64.8833 277.533 64.5153 278.125 63.822 278.552C63.1287 278.968 62.2433 279.176 61.166 279.176ZM70.441 279.16C69.5983 279.16 68.8357 278.989 68.153 278.648C67.4703 278.296 66.9263 277.779 66.521 277.096C66.1263 276.413 65.929 275.56 65.929 274.536C65.9397 273.533 66.1423 272.68 66.537 271.976C66.9317 271.272 67.4703 270.739 68.153 270.376C68.8357 270.013 69.6143 269.832 70.489 269.832C71.321 269.832 72.0303 269.981 72.617 270.28C73.2037 270.579 73.673 270.984 74.025 271.496C74.3877 272.008 74.6223 272.584 74.729 273.224H73.049C72.9743 272.755 72.7983 272.387 72.521 272.12C72.2543 271.843 71.9397 271.651 71.577 271.544C71.2143 271.427 70.8517 271.368 70.489 271.368C69.5397 271.368 68.809 271.635 68.297 272.168C67.7957 272.701 67.545 273.453 67.545 274.424C67.545 275.459 67.7903 276.253 68.281 276.808C68.7823 277.363 69.5077 277.64 70.457 277.64C70.8517 277.64 71.2357 277.581 71.609 277.464C71.9823 277.336 72.3023 277.133 72.569 276.856C72.8357 276.568 73.0063 276.184 73.081 275.704H74.777C74.6597 276.365 74.4197 276.957 74.057 277.48C73.705 277.992 73.225 278.403 72.617 278.712C72.0197 279.011 71.2943 279.16 70.441 279.16ZM80.018 279.224C78.5673 279.224 77.458 278.803 76.69 277.96C75.922 277.107 75.538 275.96 75.538 274.52C75.538 273.571 75.7033 272.749 76.034 272.056C76.3647 271.352 76.8607 270.808 77.522 270.424C78.194 270.029 79.026 269.832 80.018 269.832C81.49 269.832 82.6047 270.259 83.362 271.112C84.1193 271.955 84.498 273.091 84.498 274.52C84.498 275.448 84.3273 276.269 83.986 276.984C83.6447 277.688 83.1433 278.237 82.482 278.632C81.8207 279.027 80.9993 279.224 80.018 279.224ZM80.002 277.656C80.962 277.656 81.682 277.357 82.162 276.76C82.6527 276.163 82.898 275.416 82.898 274.52C82.898 273.912 82.7913 273.373 82.578 272.904C82.3647 272.424 82.0447 272.051 81.618 271.784C81.1913 271.507 80.6527 271.368 80.002 271.368C79.0633 271.368 78.3487 271.656 77.858 272.232C77.3673 272.808 77.122 273.571 77.122 274.52C77.122 275.107 77.2233 275.64 77.426 276.12C77.6393 276.589 77.9593 276.963 78.386 277.24C78.8127 277.517 79.3513 277.656 80.002 277.656ZM85.9429 279V269.992H89.2549C90.4175 269.992 91.3242 270.189 91.9749 270.584C92.6255 270.968 92.9509 271.651 92.9509 272.632C92.9509 273.368 92.7749 273.965 92.4229 274.424C92.0709 274.872 91.5642 275.096 90.9029 275.096C91.2762 275.096 91.5535 275.181 91.7349 275.352C91.9269 275.512 92.0602 275.715 92.1349 275.96C92.2095 276.205 92.2629 276.461 92.2949 276.728C92.3269 276.995 92.3642 277.235 92.4069 277.448C92.4602 277.651 92.5562 277.795 92.6949 277.88C92.8442 277.965 93.0735 277.949 93.3829 277.832V278.776C93.1802 278.947 92.9402 279.059 92.6629 279.112C92.3855 279.176 92.1135 279.16 91.8469 279.064C91.5802 278.968 91.3562 278.781 91.1749 278.504C90.9935 278.216 90.9029 277.816 90.9029 277.304C90.9029 276.835 90.8762 276.461 90.8229 276.184C90.7695 275.896 90.6362 275.683 90.4229 275.544C90.2095 275.395 89.8789 275.304 89.4309 275.272C88.9829 275.229 88.3642 275.229 87.5749 275.272V279H85.9429ZM87.5749 274.088H89.1909C89.7135 274.088 90.1455 274.067 90.4869 274.024C90.8282 273.971 91.0789 273.853 91.2389 273.672C91.4095 273.48 91.4949 273.176 91.4949 272.76C91.4949 272.301 91.3935 271.971 91.1909 271.768C90.9882 271.565 90.6895 271.443 90.2949 271.4C89.9109 271.347 89.4362 271.32 88.8709 271.32H87.5749V274.088ZM103.042 274.488C103.042 275.672 102.807 276.595 102.338 277.256C101.879 277.907 101.229 278.36 100.386 278.616C99.5432 278.872 98.5512 279 97.4099 279H94.9299V269.992H97.4099C98.5512 269.992 99.5432 270.163 100.386 270.504C101.229 270.835 101.879 271.331 102.338 271.992C102.807 272.653 103.042 273.485 103.042 274.488ZM96.5459 277.656H97.8739C98.5779 277.656 99.1859 277.576 99.6979 277.416C100.21 277.245 100.605 276.931 100.882 276.472C101.159 276.013 101.298 275.347 101.298 274.472C101.298 273.437 100.989 272.669 100.37 272.168C99.7619 271.656 98.9299 271.4 97.8739 271.4H96.5459V277.656ZM108.037 279V269.992H110.885L112.997 278.296H113.029L115.125 269.992H117.957V279H116.261L116.373 270.728H116.357L114.197 279H111.797L109.669 270.728H109.637L109.733 279H108.037ZM121.323 277.688H126.299V279H119.707V269.992H126.139V271.4H121.323V273.768H125.019V275.112H121.323V277.688ZM127.803 279V269.992H130.651L132.763 278.296H132.795L134.891 269.992H137.723V279H136.027L136.139 270.728H136.123L133.963 279H131.563L129.435 270.728H129.403L129.499 279H127.803ZM139.505 279V269.992H143.073C143.404 269.992 143.766 270.013 144.161 270.056C144.566 270.099 144.956 270.195 145.329 270.344C145.702 270.493 146.006 270.728 146.241 271.048C146.486 271.368 146.609 271.811 146.609 272.376C146.609 272.717 146.54 273.032 146.401 273.32C146.273 273.608 146.028 273.848 145.665 274.04C145.313 274.221 144.806 274.328 144.145 274.36V274.408C144.913 274.429 145.505 274.541 145.921 274.744C146.337 274.936 146.625 275.192 146.785 275.512C146.945 275.832 147.025 276.189 147.025 276.584C147.025 277.16 146.897 277.613 146.641 277.944C146.385 278.264 146.054 278.504 145.649 278.664C145.244 278.813 144.817 278.909 144.369 278.952C143.932 278.984 143.526 279 143.153 279H139.505ZM141.105 273.736H142.881C143.254 273.736 143.601 273.715 143.921 273.672C144.252 273.629 144.513 273.528 144.705 273.368C144.897 273.197 144.993 272.925 144.993 272.552C144.993 272.157 144.892 271.875 144.689 271.704C144.497 271.533 144.241 271.427 143.921 271.384C143.601 271.341 143.254 271.32 142.881 271.32H141.105V273.736ZM141.121 277.688H143.025C143.441 277.688 143.825 277.661 144.177 277.608C144.529 277.555 144.812 277.437 145.025 277.256C145.238 277.064 145.345 276.765 145.345 276.36C145.345 275.944 145.233 275.64 145.009 275.448C144.785 275.245 144.492 275.117 144.129 275.064C143.766 275.011 143.366 274.984 142.929 274.984H141.121V277.688ZM150.042 277.688H155.018V279H148.426V269.992H154.858V271.4H150.042V273.768H153.738V275.112H150.042V277.688ZM156.49 279V269.992H159.802C160.964 269.992 161.871 270.189 162.522 270.584C163.172 270.968 163.498 271.651 163.498 272.632C163.498 273.368 163.322 273.965 162.97 274.424C162.618 274.872 162.111 275.096 161.45 275.096C161.823 275.096 162.1 275.181 162.282 275.352C162.474 275.512 162.607 275.715 162.682 275.96C162.756 276.205 162.81 276.461 162.842 276.728C162.874 276.995 162.911 277.235 162.954 277.448C163.007 277.651 163.103 277.795 163.242 277.88C163.391 277.965 163.62 277.949 163.93 277.832V278.776C163.727 278.947 163.487 279.059 163.21 279.112C162.932 279.176 162.66 279.16 162.394 279.064C162.127 278.968 161.903 278.781 161.722 278.504C161.54 278.216 161.45 277.816 161.45 277.304C161.45 276.835 161.423 276.461 161.37 276.184C161.316 275.896 161.183 275.683 160.97 275.544C160.756 275.395 160.426 275.304 159.978 275.272C159.53 275.229 158.911 275.229 158.122 275.272V279H156.49ZM158.122 274.088H159.738C160.26 274.088 160.692 274.067 161.034 274.024C161.375 273.971 161.626 273.853 161.786 273.672C161.956 273.48 162.042 273.176 162.042 272.76C162.042 272.301 161.94 271.971 161.738 271.768C161.535 271.565 161.236 271.443 160.842 271.4C160.458 271.347 159.983 271.32 159.418 271.32H158.122V274.088ZM168.885 279.176C168.394 279.176 167.909 279.117 167.429 279C166.959 278.883 166.533 278.701 166.149 278.456C165.765 278.211 165.461 277.891 165.237 277.496C165.013 277.091 164.895 276.605 164.885 276.04H166.533C166.533 276.093 166.554 276.211 166.597 276.392C166.639 276.563 166.735 276.749 166.885 276.952C167.045 277.155 167.29 277.331 167.621 277.48C167.962 277.629 168.421 277.704 168.997 277.704C169.626 277.704 170.09 277.587 170.389 277.352C170.698 277.117 170.853 276.867 170.853 276.6C170.853 276.301 170.746 276.067 170.533 275.896C170.33 275.715 170.053 275.571 169.701 275.464C169.359 275.347 168.981 275.24 168.565 275.144C168.159 275.048 167.749 274.941 167.333 274.824C166.927 274.696 166.554 274.531 166.213 274.328C165.882 274.115 165.621 273.843 165.429 273.512C165.237 273.181 165.151 272.76 165.173 272.248C165.226 271.491 165.589 270.899 166.261 270.472C166.933 270.045 167.823 269.832 168.933 269.832C169.573 269.832 170.165 269.949 170.709 270.184C171.263 270.408 171.706 270.749 172.037 271.208C172.378 271.656 172.549 272.232 172.549 272.936H170.965C170.965 272.605 170.89 272.339 170.741 272.136C170.591 271.923 170.399 271.763 170.165 271.656C169.941 271.539 169.701 271.464 169.445 271.432C169.189 271.389 168.959 271.368 168.757 271.368C168.223 271.368 167.781 271.459 167.429 271.64C167.087 271.821 166.917 272.088 166.917 272.44C166.906 272.739 167.007 272.979 167.221 273.16C167.434 273.341 167.717 273.485 168.069 273.592C168.421 273.699 168.805 273.795 169.221 273.88C169.637 273.965 170.053 274.072 170.469 274.2C170.885 274.317 171.263 274.477 171.605 274.68C171.946 274.872 172.213 275.139 172.405 275.48C172.597 275.811 172.677 276.243 172.645 276.776C172.602 277.533 172.234 278.125 171.541 278.552C170.847 278.968 169.962 279.176 168.885 279.176Z" fill="#A8ADC3"/>
<path d="M49.232 237.288C49.344 237.688 49.352 238.104 49.256 238.536L46.568 252H41.528L44.12 239.112H41.48L42.272 235.2H46.52C46.968 235.2 47.376 235.296 47.744 235.488C48.128 235.664 48.44 235.912 48.68 236.232C48.936 236.536 49.12 236.888 49.232 237.288ZM64.8605 235.2C65.2925 235.2 65.6925 235.296 66.0605 235.488C66.4445 235.664 66.7645 235.912 67.0205 236.232C67.2765 236.536 67.4605 236.888 67.5725 237.288C67.6845 237.688 67.6925 238.104 67.5965 238.536L65.3645 249.744C65.2365 250.416 64.9085 250.96 64.3805 251.376C63.8685 251.792 63.2765 252 62.6045 252H53.1005C52.6525 252 52.2365 251.912 51.8525 251.736C51.4845 251.544 51.1725 251.296 50.9165 250.992C50.6765 250.672 50.5005 250.312 50.3885 249.912C50.2765 249.496 50.2605 249.072 50.3405 248.64L52.5965 237.456C52.7245 236.784 53.0445 236.24 53.5565 235.824C54.0685 235.408 54.6605 235.2 55.3325 235.2H64.8605ZM55.7645 247.872C55.8765 248.016 56.0205 248.088 56.1965 248.088H60.2045C60.4925 248.088 60.6765 247.936 60.7565 247.632L62.3165 239.784C62.3485 239.608 62.3085 239.456 62.1965 239.328C62.0845 239.184 61.9405 239.112 61.7645 239.112H57.7565C57.6285 239.112 57.5085 239.16 57.3965 239.256C57.3005 239.336 57.2365 239.44 57.2045 239.568L55.6445 247.416C55.6125 247.592 55.6525 247.744 55.7645 247.872ZM78.3886 241.368C78.5166 241.368 78.6286 241.328 78.7246 241.248C78.8366 241.152 78.9086 241.04 78.9406 240.912L79.1566 239.784C79.1886 239.608 79.1486 239.456 79.0366 239.328C78.9246 239.184 78.7806 239.112 78.6046 239.112H70.5886L71.3806 235.2H81.7006C82.1486 235.2 82.5566 235.296 82.9246 235.488C83.3086 235.664 83.6206 235.912 83.8606 236.232C84.1166 236.536 84.3006 236.888 84.4126 237.288C84.5246 237.688 84.5406 238.104 84.4606 238.536L83.9086 241.248C83.8126 241.76 83.5566 242.192 83.1406 242.544C82.7246 242.88 82.2526 243.048 81.7246 243.048H82.0846C82.4366 243.048 82.7566 243.128 83.0446 243.288C83.3486 243.432 83.6046 243.632 83.8126 243.888C84.0206 244.128 84.1646 244.408 84.2446 244.728C84.3406 245.048 84.3486 245.376 84.2686 245.712L83.4526 249.744C83.3246 250.416 83.0046 250.96 82.4926 251.376C81.9806 251.792 81.3886 252 80.7166 252H68.6206L69.4126 248.088H78.2926C78.4206 248.088 78.5326 248.048 78.6286 247.968C78.7406 247.872 78.8126 247.76 78.8446 247.632L79.3006 245.4C79.3326 245.224 79.2926 245.072 79.1806 244.944C79.0686 244.8 78.9246 244.728 78.7486 244.728H70.9006L71.5726 241.368H78.3886ZM85.4722 252L86.2642 248.088H89.3842L88.6162 252H85.4722ZM104.939 235.2C105.371 235.2 105.771 235.296 106.139 235.488C106.523 235.664 106.843 235.912 107.099 236.232C107.355 236.536 107.539 236.888 107.651 237.288C107.763 237.688 107.771 238.104 107.675 238.536L105.443 249.744C105.315 250.416 104.987 250.96 104.459 251.376C103.947 251.792 103.355 252 102.683 252H93.1786C92.7306 252 92.3146 251.912 91.9306 251.736C91.5626 251.544 91.2506 251.296 90.9946 250.992C90.7546 250.672 90.5786 250.312 90.4666 249.912C90.3546 249.496 90.3386 249.072 90.4186 248.64L92.6746 237.456C92.8026 236.784 93.1226 236.24 93.6346 235.824C94.1466 235.408 94.7386 235.2 95.4106 235.2H104.939ZM95.8426 247.872C95.9546 248.016 96.0986 248.088 96.2746 248.088H100.283C100.571 248.088 100.755 247.936 100.835 247.632L102.395 239.784C102.427 239.608 102.387 239.456 102.275 239.328C102.163 239.184 102.019 239.112 101.843 239.112H97.8346C97.7066 239.112 97.5866 239.16 97.4746 239.256C97.3786 239.336 97.3146 239.44 97.2826 239.568L95.7226 247.416C95.6906 247.592 95.7306 247.744 95.8426 247.872ZM113.571 241.368H119.235L119.523 239.856C119.555 239.664 119.507 239.496 119.379 239.352C119.267 239.192 119.115 239.112 118.923 239.112H111.075L111.867 235.2H122.091C122.523 235.2 122.923 235.296 123.291 235.488C123.675 235.664 123.995 235.912 124.251 236.232C124.507 236.536 124.691 236.888 124.803 237.288C124.915 237.688 124.923 238.104 124.827 238.536L123.531 244.728H115.659C115.531 244.728 115.411 244.768 115.299 244.848C115.203 244.928 115.139 245.032 115.107 245.16L114.531 248.088H123.531L122.763 252H108.699L110.283 244.08C110.363 243.68 110.499 243.32 110.691 243C110.899 242.664 111.147 242.376 111.435 242.136C111.723 241.896 112.051 241.712 112.419 241.584C112.787 241.44 113.171 241.368 113.571 241.368ZM128.663 245.544C128.279 245.368 127.959 245.128 127.703 244.824C127.447 244.52 127.263 244.176 127.151 243.792C127.039 243.392 127.023 242.976 127.103 242.544L128.159 237.432C128.287 236.776 128.607 236.24 129.119 235.824C129.631 235.408 130.223 235.2 130.895 235.2H139.247C139.679 235.2 140.079 235.296 140.447 235.488C140.831 235.664 141.151 235.912 141.407 236.232C141.663 236.536 141.847 236.888 141.959 237.288C142.071 237.688 142.079 238.104 141.983 238.536L139.751 249.744C139.623 250.416 139.295 250.96 138.767 251.376C138.255 251.792 137.663 252 136.991 252H125.855L126.647 248.088H134.591C134.895 248.088 135.071 247.936 135.119 247.632L135.479 245.832H129.863C129.431 245.832 129.031 245.736 128.663 245.544ZM132.407 242.256C132.519 242.4 132.663 242.472 132.839 242.472H136.151L136.703 239.784C136.735 239.608 136.695 239.456 136.583 239.328C136.471 239.184 136.327 239.112 136.151 239.112H133.319C133.191 239.112 133.071 239.16 132.959 239.256C132.863 239.336 132.799 239.44 132.767 239.568L132.287 241.8C132.255 241.976 132.295 242.128 132.407 242.256Z" fill="#4CCBC9"/>
<defs>
<filter id="filter0_d_51_172" x="942" y="0" width="256" height="135" filterUnits="userSpaceOnUse" color-interpolation-filters="sRGB">
<feFlood flood-opacity="0" result="BackgroundImageFix"/>
<feColorMatrix in="SourceAlpha" type="matrix" values="0 0 0 0 0 0 0 0 0 0 0 0 0 0 0 0 0 0 127 0" result="hardAlpha"/>
<feOffset dy="4"/>
<feGaussianBlur stdDeviation="5"/>
<feComposite in2="hardAlpha" operator="out"/>
<feColorMatrix type="matrix" values="0 0 0 0 0.145174 0 0 0 0 0.941667 0 0 0 0 0.920332 0 0 0 0.4 0"/>
<feBlend mode="normal" in2="BackgroundImageFix" result="effect1_dropShadow_51_172"/>
<feBlend mode="normal" in="SourceGraphic" in2="effect1_dropShadow_51_172" result="shape"/>
</filter>
<filter id="filter1_d_51_172" x="29" y="0" width="256" height="135" filterUnits="userSpaceOnUse" color-interpolation-filters="sRGB">
<feFlood flood-opacity="0" result="BackgroundImageFix"/>
<feColorMatrix in="SourceAlpha" type="matrix" values="0 0 0 0 0 0 0 0 0 0 0 0 0 0 0 0 0 0 127 0" result="hardAlpha"/>
<feOffset dy="4"/>
<feGaussianBlur stdDeviation="5"/>
<feComposite in2="hardAlpha" operator="out"/>
<feColorMatrix type="matrix" values="0 0 0 0 0.145174 0 0 0 0 0.941667 0 0 0 0 0.920332 0 0 0 0.4 0"/>
<feBlend mode="normal" in2="BackgroundImageFix" result="effect1_dropShadow_51_172"/>
<feBlend mode="normal" in="SourceGraphic" in2="effect1_dropShadow_51_172" result="shape"/>
</filter>
<filter id="filter2_d_51_172" x="998" y="181" width="256" height="135" filterUnits="userSpaceOnUse" color-interpolation-filters="sRGB">
<feFlood flood-opacity="0" result="BackgroundImageFix"/>
<feColorMatrix in="SourceAlpha" type="matrix" values="0 0 0 0 0 0 0 0 0 0 0 0 0 0 0 0 0 0 127 0" result="hardAlpha"/>
<feOffset dy="4"/>
<feGaussianBlur stdDeviation="5"/>
<feComposite in2="hardAlpha" operator="out"/>
<feColorMatrix type="matrix" values="0 0 0 0 0.145174 0 0 0 0 0.941667 0 0 0 0 0.920332 0 0 0 0.4 0"/>
<feBlend mode="normal" in2="BackgroundImageFix" result="effect1_dropShadow_51_172"/>
<feBlend mode="normal" in="SourceGraphic" in2="effect1_dropShadow_51_172" result="shape"/>
</filter>
<filter id="filter3_d_51_172" x="0" y="194" width="256" height="135" filterUnits="userSpaceOnUse" color-interpolation-filters="sRGB">
<feFlood flood-opacity="0" result="BackgroundImageFix"/>
<feColorMatrix in="SourceAlpha" type="matrix" values="0 0 0 0 0 0 0 0 0 0 0 0 0 0 0 0 0 0 127 0" result="hardAlpha"/>
<feOffset dy="4"/>
<feGaussianBlur stdDeviation="5"/>
<feComposite in2="hardAlpha" operator="out"/>
<feColorMatrix type="matrix" values="0 0 0 0 0.145174 0 0 0 0 0.941667 0 0 0 0 0.920332 0 0 0 0.4 0"/>
<feBlend mode="normal" in2="BackgroundImageFix" result="effect1_dropShadow_51_172"/>
<feBlend mode="normal" in="SourceGraphic" in2="effect1_dropShadow_51_172" result="shape"/>
</filter>
<filter id="filter4_d_51_172" x="942" y="368" width="256" height="135" filterUnits="userSpaceOnUse" color-interpolation-filters="sRGB">
<feFlood flood-opacity="0" result="BackgroundImageFix"/>
<feColorMatrix in="SourceAlpha" type="matrix" values="0 0 0 0 0 0 0 0 0 0 0 0 0 0 0 0 0 0 127 0" result="hardAlpha"/>
<feOffset dy="4"/>
<feGaussianBlur stdDeviation="5"/>
<feComposite in2="hardAlpha" operator="out"/>
<feColorMatrix type="matrix" values="0 0 0 0 0.145174 0 0 0 0 0.941667 0 0 0 0 0.920332 0 0 0 0.4 0"/>
<feBlend mode="normal" in2="BackgroundImageFix" result="effect1_dropShadow_51_172"/>
<feBlend mode="normal" in="SourceGraphic" in2="effect1_dropShadow_51_172" result="shape"/>
</filter>
<linearGradient id="paint0_linear_51_172" x1="352.426" y1="90.9706" x2="352.426" y2="142" gradientUnits="userSpaceOnUse">
<stop stop-color="#4CCBC9"/>
<stop offset="1" stop-opacity="0"/>
<stop offset="1" stop-opacity="0"/>
</linearGradient>
<linearGradient id="paint1_linear_51_172" x1="334.646" y1="253.393" x2="334.646" y2="268.5" gradientUnits="userSpaceOnUse">
<stop stop-color="#4CCBC9"/>
<stop offset="1" stop-opacity="0"/>
<stop offset="1" stop-opacity="0"/>
</linearGradient>
<linearGradient id="paint2_linear_51_172" x1="873.074" y1="86.9706" x2="873.074" y2="138" gradientUnits="userSpaceOnUse">
<stop stop-color="#4CCBC9"/>
<stop offset="1" stop-opacity="0"/>
<stop offset="1" stop-opacity="0"/>
</linearGradient>
<linearGradient id="paint3_linear_51_172" x1="1216.2" y1="11.8947" x2="1066.2" y2="214.601" gradientUnits="userSpaceOnUse">
<stop stop-color="#4CCBC9"/>
<stop offset="0.535683" stop-color="#2B361C" stop-opacity="0"/>
<stop offset="0.830796" stop-color="#4CCBC9"/>
</linearGradient>
<linearGradient id="paint4_linear_51_172" x1="1216.2" y1="11.8947" x2="1066.2" y2="214.601" gradientUnits="userSpaceOnUse">
<stop stop-color="#4CCBC9"/>
<stop offset="0.535683" stop-color="#2B361C" stop-opacity="0"/>
<stop offset="0.830796" stop-color="#4CCBC9"/>
</linearGradient>
<linearGradient id="paint5_linear_51_172" x1="303.204" y1="11.8947" x2="153.199" y2="214.601" gradientUnits="userSpaceOnUse">
<stop stop-color="#4CCBC9"/>
<stop offset="0.535683" stop-color="#2B361C" stop-opacity="0"/>
<stop offset="0.830796" stop-color="#4CCBC9"/>
</linearGradient>
<linearGradient id="paint6_linear_51_172" x1="303.204" y1="11.8947" x2="153.199" y2="214.601" gradientUnits="userSpaceOnUse">
<stop stop-color="#4CCBC9"/>
<stop offset="0.535683" stop-color="#2B361C" stop-opacity="0"/>
<stop offset="0.830796" stop-color="#4CCBC9"/>
</linearGradient>
<linearGradient id="paint7_linear_51_172" x1="926.854" y1="252.393" x2="926.854" y2="267.5" gradientUnits="userSpaceOnUse">
<stop stop-color="#4CCBC9"/>
<stop offset="1" stop-opacity="0"/>
<stop offset="1" stop-opacity="0"/>
</linearGradient>
<linearGradient id="paint8_linear_51_172" x1="1272.2" y1="192.895" x2="1122.2" y2="395.601" gradientUnits="userSpaceOnUse">
<stop stop-color="#4CCBC9"/>
<stop offset="0.535683" stop-color="#2B361C" stop-opacity="0"/>
<stop offset="0.830796" stop-color="#4CCBC9"/>
</linearGradient>
<linearGradient id="paint9_linear_51_172" x1="274.204" y1="205.895" x2="124.199" y2="408.601" gradientUnits="userSpaceOnUse">
<stop stop-color="#4CCBC9"/>
<stop offset="0.535683" stop-color="#2B361C" stop-opacity="0"/>
<stop offset="0.830796" stop-color="#4CCBC9"/>
</linearGradient>
<linearGradient id="paint10_linear_51_172" x1="874.074" y1="415.029" x2="874.074" y2="364" gradientUnits="userSpaceOnUse">
<stop stop-color="#4CCBC9"/>
<stop offset="1" stop-opacity="0"/>
<stop offset="1" stop-opacity="0"/>
</linearGradient>
<linearGradient id="paint11_linear_51_172" x1="1216.2" y1="379.895" x2="1066.2" y2="582.601" gradientUnits="userSpaceOnUse">
<stop stop-color="#4CCBC9"/>
<stop offset="0.535683" stop-color="#2B361C" stop-opacity="0"/>
<stop offset="0.830796" stop-color="#4CCBC9"/>
</linearGradient>
</defs>
</svg>
