<svg width="554" height="480" viewBox="0 0 554 480" fill="none" xmlns="http://www.w3.org/2000/svg">
<path fill-rule="evenodd" clip-rule="evenodd" d="M456.81 6.05762C456.81 6.05762 488.317 13.3234 501.475 37.3409C501.475 37.3409 503.759 10.4338 456.81 6.05762Z" fill="#E4007B"/>
<path d="M501.757 38.6736L501.127 37.5225C494.382 25.2132 482.675 17.4265 474.041 13.0483C464.667 8.30336 456.788 6.45571 456.709 6.43815L456.837 5.66943C467.597 6.67228 476.657 8.95112 483.767 12.4416C489.479 15.2472 493.954 18.8371 497.067 23.1119C502.39 30.4167 501.892 37.0893 501.868 37.3703L501.757 38.6736ZM461.326 6.96299C465.815 8.42286 470.184 10.2225 474.393 12.346C482.817 16.6071 494.135 24.0933 501.064 35.8172C500.912 33.4584 500.112 28.5983 496.396 23.5255C493.351 19.3659 488.971 15.8657 483.378 13.1264C477.386 10.1881 469.983 8.12192 461.326 6.96299Z" fill="#E4007B"/>
<path fill-rule="evenodd" clip-rule="evenodd" d="M256.521 52.8811L260.552 50.9983C260.552 50.9983 284.273 66.238 281.284 80.8065C281.284 80.8065 269.519 65.9336 256.521 52.8811Z" fill="#E4007B" stroke="#E4007B" stroke-width="0.5" stroke-miterlimit="10"/>
<path fill-rule="evenodd" clip-rule="evenodd" d="M456.99 224.058C456.373 221.545 455.229 219.189 453.632 217.141C451.355 214.175 448.244 211.936 444.688 210.703C434.822 207.238 423.626 207.191 420.339 207.251H420.26H420.015C419.764 207.251 419.584 207.265 419.485 207.269H419.396L410.032 194.499L402.856 184.712L388.205 158.707V158.697C386.285 154.795 385.241 151.142 384.799 147.771C384.132 142.704 384.82 137.552 386.792 132.828C389.118 127.211 392.462 123.878 392.784 123.566L392.804 123.547C393.264 123.094 393.72 122.649 394.173 122.21C406.62 110.166 415.72 103.87 421.658 100.573C427.407 97.3907 430.197 97.0337 430.197 97.0337H430.266C431.264 97.1078 442.73 97.9058 446.933 95.7811L446.998 95.746C451.164 93.5822 449.157 89.0538 449.023 88.7631V88.7495C450.282 88.0855 451.586 87.5073 452.925 87.0189L453.019 86.9857C454.628 86.4218 455.438 86.3497 455.438 86.3497C455.438 86.3497 455.438 86.3321 455.438 86.3243C455.438 86.3165 455.438 86.3048 455.438 86.2911C457.109 73.4044 456.765 67.1278 456.489 64.8021C456.473 64.6675 456.457 64.5485 456.443 64.4392C456.443 64.3963 456.437 64.3553 456.425 64.3163C456.425 64.2773 456.414 64.2402 456.41 64.2051C456.406 64.17 456.398 64.1427 456.394 64.1114C456.393 64.0965 456.393 64.0815 456.394 64.0666C456.394 64.049 456.394 64.0334 456.384 64.0158L456.372 63.9475C456.364 63.8994 456.356 63.8584 456.348 63.8246C456.348 63.7915 456.337 63.7661 456.333 63.7466V63.7212C456.333 63.7212 456.333 63.7076 456.333 63.7017L454.594 60.9214L453.134 58.5802L450.368 54.1571L449.598 52.924L449.4 52.6138L448.932 51.8666L445.897 47.0123L445.344 46.1285L443.566 43.2819L443.084 42.5015L437.355 33.3315L431.853 39.9085C428.67 46.0446 425.171 44.0057 424.989 43.8984C402.686 29.8137 378.682 25.0492 356.125 25.2326C322.157 25.5058 291.466 36.9956 274.792 44.7784C270.273 46.8875 266.395 48.5361 262.979 49.896C245.424 56.8788 240.127 56.2272 223.176 71.3577L223.158 71.3752C207.541 85.3214 206.067 98.0658 210.87 113.142C212.289 117.59 214.254 122.241 216.564 127.189C226.693 148.887 224.628 154.551 226.576 180.221C226.576 180.239 226.576 180.256 226.576 180.274C226.996 186.126 227.828 191.942 229.066 197.679C231.93 210.673 235.876 216.523 236.042 216.766L238.533 231.513L279.114 227.047C279.114 227.047 279.114 226.994 279.114 226.885C279.172 225.833 279.509 219.471 280.136 202.225C280.302 197.695 280.274 193.348 280.136 189.348C280.135 189.331 280.135 189.313 280.136 189.296C279.689 176.534 278.115 167.395 278.115 167.395L278.719 167.639C281.205 168.63 289.98 172.105 278.64 167.02C268.227 162.353 262.118 154.686 260.069 151.78C259.554 151.045 259.297 150.61 259.297 150.61C264.236 154.393 275.726 161.179 287.837 168.076C302.219 176.27 317.471 184.625 323.645 188.302L323.712 188.341C325.2 189.229 326.281 190.097 327.027 190.956L327.043 190.973C328.503 192.638 328.709 194.206 328.278 195.59C327.264 198.844 322.724 201.066 322.724 201.066C322.561 201.22 322.397 201.375 322.235 201.531L321.608 202.137C320.881 202.846 320.171 203.569 319.479 204.305C319.295 204.5 319.111 204.695 318.929 204.89C318.777 205.052 318.629 205.216 318.479 205.378C308.767 216.047 302.16 228.963 298.148 238.558C294.825 246.499 293.28 252.165 293.209 252.391L268.458 300.276L267.956 301.251C267.519 301.213 267.079 301.204 266.64 301.226C262.742 301.421 258.376 303.958 254.065 309.268C252.713 310.953 251.476 312.724 250.363 314.571C248.213 318.101 248.02 321.086 249.217 323.595C249.606 324.397 250.112 325.14 250.719 325.798C253.644 329.025 259.139 331.284 265.469 332.783C266.158 332.946 266.863 333.153 267.583 333.397C270.465 334.373 273.559 335.963 276.588 337.805L276.686 337.865C286.073 343.589 294.825 351.718 294.825 351.718C298.829 354.783 303.148 357.079 307.239 358.794L307.32 358.827C316.655 362.729 324.799 363.592 325.332 363.644H325.36C329.868 363.094 332.695 362.226 334.235 361.108C334.659 360.813 335.022 360.438 335.301 360.006C337.026 357.22 333.089 353.317 327.689 349.006C326.915 348.387 326.109 347.759 325.283 347.125C317.843 341.398 308.885 330.89 304.189 323.478C303.198 321.963 302.335 320.371 301.607 318.717C301.418 318.273 301.261 317.817 301.137 317.352C301.136 317.342 301.136 317.333 301.137 317.324C301.076 317.084 301.012 316.856 300.939 316.637C300.236 314.259 299.325 313.153 298.549 312.649C297.646 312.064 296.925 312.298 296.925 312.298C297.685 306.597 300.621 299.696 303.673 293.746L303.685 293.722C306.091 289.058 308.746 284.523 311.639 280.137L311.667 280.096C311.669 280.091 311.672 280.086 311.677 280.082L331.433 255.71C340.973 244.589 348.366 235.419 354.092 227.86C356.577 224.584 358.746 221.617 360.643 218.93C373.38 200.895 373.769 195.597 373.769 195.597C368.553 190.962 363.628 183.218 360.175 177.01C357.466 172.132 355.66 168.23 355.324 167.479L355.307 167.442L355.293 167.41C355.293 167.391 355.277 167.377 355.273 167.368C363.264 181.286 391.822 210.201 401.108 219.436C402.913 221.232 403.99 222.284 404.044 222.337C407.374 227.724 413.315 232.231 419.11 235.625C423.561 238.227 428.248 240.416 433.109 242.163L433.243 242.21L433.5 242.296L433.611 242.331C434.23 242.544 434.889 242.621 435.541 242.556C435.59 242.556 435.64 242.544 435.689 242.534L435.774 242.521C436.853 242.308 437.572 241.586 438.054 240.735L438.121 240.614C438.953 239.053 439.014 237.128 439.014 237.128L439.17 237.298L439.437 237.578L439.475 237.616C440.921 239.089 442.013 239.647 442.833 239.65C443.109 239.653 443.381 239.586 443.623 239.455C445.39 238.503 445.401 234.365 445.401 234.365C446.632 234.972 447.622 235.319 448.408 235.464C453.614 236.421 450.05 228.531 449.989 228.387C450.147 228.44 453.407 229.511 455.728 228.904L455.795 228.886C456.031 228.823 456.26 228.737 456.479 228.629C457.305 228.284 457.54 226.45 456.99 224.058ZM358.515 113.06C358.191 113.665 348.242 132.352 347.451 143.465C347.195 145.49 347.307 146.969 347.787 147.902C343.142 140.657 333.745 130.68 319.597 117.972C320.98 117.413 323.777 116.341 325.072 115.846C329.951 114.207 337.392 112.26 345.774 111.998C350.046 111.917 354.315 112.268 358.515 113.046V113.06Z" fill="#002B75"/>
<path fill-rule="evenodd" clip-rule="evenodd" d="M437.324 33.3491L443.216 32.276L459.09 59.5694L472.672 42.7025L476.928 45.311L462.363 63.7115L460.68 86.0687C460.68 86.0687 460.356 85.579 455.423 86.3633C455.423 86.3633 457.776 70.7724 456.308 63.7095L437.324 33.3491Z" fill="#E4007B"/>
<path fill-rule="evenodd" clip-rule="evenodd" d="M447.143 33.8095C447.143 33.8095 467.418 35.2689 488.056 50.9788C488.056 50.9788 487.858 70.5773 495.595 61.1926C495.595 61.1926 494.41 57.5207 500.182 53.4723C500.182 53.4723 504.56 44.1657 490.184 45.7636C490.184 45.7695 461.478 28.048 447.143 33.8095Z" fill="#E4007B"/>
<path fill-rule="evenodd" clip-rule="evenodd" d="M460.68 86.0687L462.364 63.7114L476.928 45.3109L472.673 42.7023L459.09 59.5693L443.216 32.268C443.216 32.268 448.183 31.7919 454.732 32.6582C454.732 32.6582 448.793 32.6114 446.829 33.7722C446.829 33.7722 466.501 34.9429 488.051 50.9846C488.051 50.9846 487.385 70.5187 495.59 61.1984C495.915 63.304 496.543 65.3526 497.457 67.2818C498.933 70.3099 499.433 76.3153 492.042 73.1994C491.308 73.3269 490.614 73.6228 490.017 74.0633C489.42 74.5039 488.936 75.0767 488.604 75.7358C488.604 75.7358 489.667 78.4361 488.296 78.9844C486.925 79.5326 483.95 77.0821 483.337 78.2039C482.725 79.3258 484.578 79.7843 485.23 81.4271C485.882 83.0699 485.248 83.7313 482.302 82.9645C479.356 82.1978 478.734 82.9645 479.062 85.0619C479.39 87.1593 480.986 90.1093 477.234 91.278C473.483 92.4467 470.162 88.209 465.412 87.0403L460.68 86.0687Z" fill="#4CCBC9"/>
<g filter="url(#filter0_f_51_197)">
<path fill-rule="evenodd" clip-rule="evenodd" d="M325.47 115.695L325.075 115.844C323.781 116.339 320.974 117.405 319.601 117.97C319.403 118.047 319.245 118.115 319.119 118.166L319.097 118.175C301.06 103.905 289.183 94.9103 283.469 91.1902C283.352 91.1122 283.237 91.0381 283.125 90.9659C282.309 90.4456 281.631 90.0398 281.088 89.7484C294.171 93.2213 310.954 101.121 325.451 115.672L325.47 115.695Z" fill="#E4007B"/>
</g>
<g filter="url(#filter1_f_51_197)">
<path fill-rule="evenodd" clip-rule="evenodd" d="M342.207 151.767C320.455 137.819 306.273 132.195 299.66 134.894C298.211 132.553 301.484 131.326 309.479 131.212C290.069 119.416 274.468 115.532 262.676 119.561C263.598 113.945 270.362 111.799 282.968 113.122C284.871 107.764 278.652 101.836 264.312 95.3362C289.941 102.121 315.906 120.931 342.207 151.767Z" fill="#E4007B"/>
</g>
<g filter="url(#filter2_f_51_197)">
<path fill-rule="evenodd" clip-rule="evenodd" d="M417.812 208.498C417.24 209.803 416.187 210.845 414.867 211.413C396.782 187.77 384.345 168.501 377.555 153.605C373.19 147.051 374.281 136.726 380.829 122.632C380.829 122.632 377.5 118.851 370.844 111.284C380.063 114.191 386.064 118.28 388.846 123.551C382.662 133.696 380.535 141.619 382.464 147.318C385.369 162.188 397.151 182.581 417.812 208.498Z" fill="#E4007B"/>
</g>
<g filter="url(#filter3_f_51_197)">
<path fill-rule="evenodd" clip-rule="evenodd" d="M374.482 62.7906C369.759 55.2713 367.686 49.2399 368.263 44.6965C360.79 37.3788 343.662 35.7431 316.879 39.7896C322.363 39.1536 325.199 42.8339 325.388 50.8307C324.64 44.2829 315.693 41.6249 298.549 42.8567C329.685 32.9414 356.96 31.919 380.374 39.7896C374.057 44.6321 372.093 52.2992 374.482 62.7906Z" fill="#E4007B"/>
</g>
<g filter="url(#filter4_f_51_197)">
<path fill-rule="evenodd" clip-rule="evenodd" d="M406.885 94.0699C418.28 81.3685 421.335 66.8533 416.05 50.5242C427.033 70.7606 423.978 85.2759 406.885 94.0699Z" fill="#E4007B"/>
</g>
<path fill-rule="evenodd" clip-rule="evenodd" d="M347.794 147.906C347.313 146.973 347.202 145.494 347.458 143.469C347.338 145.151 347.429 146.661 347.794 147.906Z" fill="#E4007B"/>
<path fill-rule="evenodd" clip-rule="evenodd" d="M238.714 242.021L278.369 237.44L278.157 240.171C278.157 240.171 284.874 249.732 273.287 260.283C261.7 270.834 255.244 279.544 255.244 279.544L236.942 308.008L224.147 259.399L238.714 242.021Z" fill="#002B75"/>
<path fill-rule="evenodd" clip-rule="evenodd" d="M543.887 329.526C536.901 315.613 525.664 301.33 508.571 287.259L508.551 287.243L508.535 287.231C508.162 286.939 504.892 284.437 499.224 281.21L499.183 281.187C487.107 274.358 473.955 269.583 460.277 267.061C443.445 263.969 426.13 264.589 409.57 268.878L393.506 213.647L380.568 202.259C380.568 202.259 380.568 202.259 380.568 202.272C380.461 202.608 378.418 209.181 379.277 216.973L362.135 218.843L356.603 227.265L381.397 224.838C381.611 225.135 385.534 230.764 384.276 236.258C383.669 238.921 381.844 241.553 377.788 243.531L305.81 321.788L316.004 335.557L392.206 257.335L398.504 272.229H398.487C397.732 272.454 373.441 279.803 353.272 301.759L353.231 301.804C344.253 311.586 337.097 322.859 332.091 335.1C332.086 335.118 332.079 335.135 332.072 335.151C329.276 342.052 328.284 346.676 328.194 347.117C328.193 347.123 328.193 347.129 328.194 347.135C328.194 347.14 328.194 347.146 328.194 347.152C328.194 347.152 334.539 353.249 337.084 355.333C337.281 355.499 337.461 355.637 337.609 355.747C337.752 355.855 337.88 355.98 337.991 356.119C338.376 356.632 338.58 357.255 338.572 357.893C338.589 360.456 335.754 364.263 325.246 365.484C325.246 365.484 325.246 365.5 325.246 365.531C325.23 365.717 325.173 366.44 325.131 367.631C325.13 367.645 325.13 367.659 325.131 367.673C324.91 374.038 325.131 393.427 334.304 414.481C341.654 431.364 354.748 449.316 377.966 462.478C389.029 468.754 402.406 473.94 418.553 477.403H418.571C419.922 477.7 480.053 490.61 524.601 443.146C524.797 442.94 524.995 442.731 525.194 442.52L525.259 442.45C526.628 440.93 547.839 416.94 552.707 383.596C555.073 367.309 553.548 348.77 543.887 329.526ZM537.073 385.943C535.155 397.214 530.927 408.576 524.214 419.681C506.937 446.787 475.319 464.946 439.175 464.946C418.905 464.946 400.057 459.237 384.367 449.439C367.443 438.288 355.631 424.49 348.531 409.506C348.471 409.381 348.412 409.258 348.355 409.134C345.968 403.994 344.085 398.642 342.73 393.148C342.651 392.834 342.578 392.52 342.505 392.206C337.05 368.583 341.976 343.513 355.926 322.024L355.935 322.009C355.936 322.004 355.936 322 355.935 321.995C367.299 305.497 384.096 292.597 403.955 285.51L404.5 286.839L426.045 339.385L426.959 341.619L427.422 342.747L427.894 343.9C427.894 343.9 413.122 347.661 413.499 360.839C414.764 362.309 416.481 363.323 418.652 363.881C417.784 366.297 417.341 368.842 417.344 371.406C417.344 378.553 420.732 384.958 426.084 389.289C437.74 399.312 460.241 397.076 466.332 379.269C466.332 379.269 466.332 379.269 466.332 379.255C467.276 376.743 467.758 374.085 467.756 371.406C467.756 371.142 467.756 370.881 467.742 370.625C467.523 357.877 456.833 348.057 443.217 347.798C443.035 347.798 442.851 347.798 442.666 347.798H442.547C441.478 347.8 440.41 347.865 439.349 347.993L414.622 282.35H414.651H414.671L414.722 282.338C415.623 282.125 416.528 281.92 417.439 281.729L417.717 281.673L417.915 281.634C423.976 280.447 437.786 278.434 454.209 280.553H454.239C471.162 282.941 487.197 289.525 500.846 299.691L500.864 299.704C515.912 311.655 526.764 326.192 532.788 342.052C532.788 342.074 532.806 342.097 532.814 342.12C537.937 356.149 539.399 371.226 537.067 385.961C537.066 385.958 537.066 385.954 537.067 385.951C537.068 385.948 537.07 385.945 537.073 385.943ZM428.572 363.896C429.098 363.81 429.638 363.711 430.192 363.598C430.828 363.256 431.432 362.926 431.997 362.608L432.027 362.593C433.001 362.113 433.94 361.565 434.834 360.952L434.858 360.936L434.979 361.229C437.634 368.768 439.777 374.059 441.619 377.331C441.619 377.337 441.619 377.343 441.619 377.349C441.992 378.111 442.457 378.827 443.002 379.481C444.062 380.878 445.029 381.51 445.945 381.432C446.635 381.425 447.32 381.328 447.984 381.146H448.004C448.349 381.078 448.673 380.931 448.95 380.718C448.955 380.72 448.96 380.72 448.964 380.718C450.149 379.938 450.396 378.496 449.857 376.202L449.845 376.149C449.511 374.744 448.883 373.027 447.99 370.943L441.881 354.728C450.969 354.884 455.644 359.698 457.558 362.406L457.631 362.509C458.001 363.052 458.336 363.618 458.635 364.203V364.216C460.223 367.315 460.746 370.84 460.124 374.258C460.126 374.268 460.126 374.278 460.124 374.288C459.371 377.682 457.647 380.793 455.158 383.249L455.112 383.294C451.703 386.433 447.208 388.168 442.547 388.144C440.186 388.149 437.845 387.709 435.65 386.849H435.634C434.734 386.471 433.857 386.04 433.009 385.559C432.957 385.532 432.908 385.502 432.859 385.471C429.121 383.202 426.339 379.655 425.239 375.489C425.238 375.483 425.238 375.476 425.239 375.47C424.053 369.907 426.226 364.762 426.442 364.261L426.46 364.222C427.174 364.19 427.882 364.08 428.572 363.892V363.896Z" fill="#4CCBC9"/>
<path fill-rule="evenodd" clip-rule="evenodd" d="M404.725 184.67L411.72 194.249C411.72 194.249 424.957 193.133 432.069 194.872C439.182 196.61 445.515 200.303 445.263 208.636C445.263 208.636 452.537 211.668 454.514 214.406C454.514 214.406 456.194 206.98 451.602 197.498C451.602 197.498 461.838 193.061 470.258 185.384C470.258 185.384 471.406 193.09 469.768 202.405C469.768 202.405 463.583 202.795 467.346 210.231C471.11 217.666 479.722 226.079 480.68 223.498C481.638 220.916 476.598 214.607 474.85 202.251C473.101 189.895 472.874 182.935 472.874 182.935C472.874 182.935 483.367 182.545 482.458 175.521C481.549 168.497 469.628 162.408 464.495 170.058C459.363 177.708 455.186 182.258 446.572 182.35C437.959 182.442 404.725 184.67 404.725 184.67Z" fill="#4CCBC9"/>
<path fill-rule="evenodd" clip-rule="evenodd" d="M411.42 232.625C411.42 232.625 418.008 239.124 422.831 240.581C422.831 240.581 415.324 245.069 407.36 242.489C399.396 239.91 407.129 233.649 411.42 232.625Z" fill="#4CCBC9"/>
<path fill-rule="evenodd" clip-rule="evenodd" d="M169.515 364.052C169.495 364.072 169.479 364.093 169.462 364.113H169.515L169.553 364.06L169.515 364.052ZM277.507 344.218L281.304 348.44L266.977 364.015C263.16 361.988 258.984 360.705 254.677 360.236C253 360.086 251.316 360.021 249.633 360.041H249.52L219.056 243.26L299.093 234.055C300.043 229.513 302.357 225.343 302.357 225.343L214.638 234.904L212.675 225.398L211.205 225.704L197.047 172.575L212.513 162.07L222.861 162.566H222.893L222.3 155.417C222.275 155.412 222.25 155.408 222.225 155.406C211.632 153.946 200.783 152.92 190.714 152.259C178.346 151.677 165.099 151.727 150.972 152.409C148.398 152.409 146.717 152.591 145.928 152.955C144.918 154.235 149.484 156.323 154.145 158.051C154.174 158.06 154.202 158.07 154.229 158.082C156.648 158.942 159.562 159.902 162.972 160.962H163.005L163.055 160.978H163.082C163.996 161.757 164.97 162.464 165.996 163.093L166.071 163.14C170.22 165.625 175.159 166.929 178.216 167.547L178.346 167.572L178.472 167.598L178.719 167.645C179.445 167.779 180.189 167.9 180.95 168.013H181.007H181.051H181.084C181.287 168.678 181.568 169.316 181.922 169.916V169.927C183.371 171.992 186.362 173.292 190.895 173.829L205.377 227.037L205.191 227.078L204.312 227.273L208.893 246.901L185.075 274.327L175.479 285.432L174.033 287.098L123.842 344.893L123.83 344.881L122.226 346.69C122.383 345.864 122.692 345.075 123.139 344.36C119.395 341.678 114.884 340.243 110.26 340.263C100.674 340.263 92.5798 346.249 90.0056 354.449C90.0056 354.449 90.0056 354.449 90.0056 354.463C89.44 356.559 89.1596 358.72 89.1719 360.89C89.4998 368.155 94.0141 374.405 100.512 377.583H100.528C97.4498 370.571 100.666 366.31 102.503 364.591C102.966 364.113 103.457 363.664 103.975 363.246C103.845 363.402 103.72 363.559 103.6 363.715C101.861 366.671 101.19 369.115 101.19 371.129C101.363 372.776 101.88 374.37 102.707 375.811C104.91 378.798 108.739 379.749 108.739 379.749C110.319 383.911 111.788 386.927 113.144 388.798C117.263 394.044 121.442 392.641 122.173 392.337L122.222 392.315L122.287 392.286C123.29 393.02 123.795 394.073 123.803 395.447C123.931 396.511 123.724 397.588 123.21 398.531C123.21 398.531 123.21 398.531 123.21 398.541C123.008 399.112 122.776 399.673 122.517 400.221C121.635 402.277 120.86 404.376 120.195 406.509C120.192 406.524 120.187 406.538 120.181 406.552C119.662 408.278 119.309 410.049 119.128 411.842C119.107 412.249 119.115 412.657 119.152 413.063C119.118 413.26 119.097 413.459 119.087 413.658C119.104 414.65 119.339 415.626 119.774 416.52C119.774 416.54 119.798 416.559 119.806 416.579C120.331 417.452 121.075 418.176 121.966 418.683C122.857 419.189 123.865 419.459 124.893 419.468C125.492 419.456 126.087 419.385 126.671 419.256C127.267 419.096 127.835 418.847 128.355 418.518H128.87L189.02 419.181C178.823 430.112 166.24 438.609 152.226 444.028C151.013 444.513 149.788 444.963 148.552 445.376C137.553 449.159 125.986 451.083 114.339 451.066C112.189 451.066 110.055 451.001 107.938 450.871C91.6967 451.706 72.2881 445.017 55.4241 432.843C45.6373 426.084 37.2066 417.588 30.5607 407.789C19.2068 391.459 12.78 371.429 15.8008 349.316C19.4557 313.892 44.3803 284.299 78.4639 271.888L78.6615 271.818C79.2324 271.603 79.5387 271.502 79.5387 271.502C88.5158 268.276 97.9228 266.367 107.46 265.834C109.727 265.688 112.014 265.615 114.322 265.613C136.83 265.613 157.588 272.653 174.207 284.511L174.391 284.64L174.462 284.689L174.517 284.73L174.573 284.769L174.616 284.8L174.689 284.855L184.326 273.86C181.116 271.523 177.785 269.352 174.345 267.358C138.122 246.856 97.0744 252.613 94.1347 253.058L94.0122 253.078H93.9687C62.4475 258.396 35.4326 275.825 18.6002 300.036C4.9407 321.277 -1.60457 347.006 0.999314 371.406C0.999314 371.437 0.999318 371.468 1.0092 371.499C3.57752 391.178 11.8613 409.202 24.2486 424.079C45.8976 449.546 80.0405 466.007 116.906 465.287L117.767 465.266L118.881 465.23C119.261 465.217 119.64 465.201 120.015 465.182C120.199 465.182 120.383 465.166 120.563 465.156C120.663 465.156 120.76 465.156 120.863 465.141C121.337 465.117 121.809 465.09 122.276 465.059C122.364 465.059 122.453 465.049 122.54 465.041L123.331 464.987C123.828 464.951 124.318 464.912 124.82 464.869L125.778 464.786C127.99 464.577 130.181 464.312 132.351 463.99C132.707 463.937 133.061 463.882 133.416 463.826C133.9 463.75 134.38 463.67 134.86 463.588C135.113 463.547 135.366 463.502 135.617 463.457L136.48 463.301L137.433 463.119C137.8 463.049 138.167 462.976 138.533 462.901L139.363 462.729L140.197 462.55L140.987 462.372C174.573 454.751 195.574 434.29 203.919 424.619C203.95 424.58 203.984 424.541 204.017 424.504C205.402 422.857 206.736 421.172 208.02 419.449C208.027 419.438 208.035 419.427 208.044 419.418L239.851 419.769C241.738 420.36 243.665 420.816 245.618 421.134L245.857 421.172C247.493 421.402 249.144 421.517 250.796 421.517C258.366 421.549 265.727 419.07 271.699 414.477L271.726 414.454C273.315 413.172 274.802 411.771 276.174 410.265C280.82 404.96 283.608 398.169 283.608 390.774C283.609 389.731 283.552 388.689 283.438 387.652C282.763 383.037 281.151 378.603 278.696 374.619C278.68 374.597 278.666 374.575 278.653 374.551L278.609 374.487C278.609 374.467 278.584 374.447 278.572 374.428C278.459 374.254 278.396 374.165 278.396 374.165L294.122 358.018L299.579 360.478C300.12 359.516 300.632 358.646 301.106 357.865C293.126 352.258 279.281 341.703 279.281 341.703L277.507 344.218ZM196.441 166.419C195.9 166.322 194.874 164.619 193.363 161.31L208.255 160.697L207.728 160.952C207.635 160.999 207.53 161.052 207.408 161.109L207.283 161.169C205.693 161.949 202.145 163.683 196.638 166.371C196.612 166.394 196.58 166.41 196.546 166.419C196.511 166.427 196.475 166.427 196.441 166.419ZM261.352 370.132L257.35 374.485C257.275 375.089 257.192 375.614 257.093 376.057C256.133 375.687 255.141 375.404 254.129 375.21C253.409 373.553 252.58 371.119 251.644 367.908C254.997 368.007 258.297 368.763 261.352 370.132ZM241.716 377.431C240.889 377.938 240.108 378.515 239.383 379.157L230.847 377.579C233.217 374.458 236.325 371.957 239.899 370.296L241.716 377.431ZM237.909 362.491C234.24 363.958 230.867 366.064 227.952 368.709C228.216 366.139 228.382 363.544 228.45 360.925L237.71 361.705L237.909 362.491ZM179.662 288.694L188.7 278.422L189.53 277.48L189.678 277.312L189.959 276.994L190.032 276.91L210.225 253.962L228.122 324.128L228.187 324.377L228.245 324.6L228.405 325.232L228.446 325.39V325.429V325.443L237.161 359.608L228.468 358.874V358.845C228.468 357.996 228.369 339.006 219.718 318.046C219.708 318.026 219.7 318.005 219.694 317.984C215.707 308.979 210.597 300.501 204.482 292.747L204.087 292.282L204.059 292.251C199.741 287.242 194.823 282.77 189.414 278.931L180.393 289.272C181.829 290.425 185.205 293.291 189.273 297.796L189.38 297.913C190.032 298.619 190.671 299.335 191.296 300.059C194.625 303.909 197.63 308.019 200.282 312.351L200.299 312.382C200.532 312.772 200.766 313.163 200.993 313.541L201.06 313.652L201.22 313.924C208.576 326.49 212.536 339.382 213.099 352.601C213.208 354.252 213.273 355.918 213.285 357.584L210.243 357.329L209.938 357.302L185.182 355.218H185.073L182.289 354.984L128.738 350.473L127.23 348.274L179.662 288.694ZM179.824 368.286L166.459 365.674L161.826 364.817L131.354 359.182L129.811 352.549L178.781 356.706L209.091 359.282L209.468 359.313L213.291 359.637C213.258 361.765 213.149 363.875 212.965 365.966C211.326 366.347 209.711 366.826 208.131 367.4H208.111C207.364 367.755 206.574 368.176 205.74 368.663L204.413 372.256L177.591 367.564C178.297 367.796 179.042 368.036 179.826 368.286H179.824ZM269.294 405.725C265.432 409.874 260.238 412.578 254.59 413.381C253.363 413.651 252.091 413.647 250.866 413.371C245.107 414.239 232.804 415.588 224.683 412.831C226.459 413.499 228.284 414.112 230.157 414.669C231.644 415.798 233.225 416.8 234.885 417.664L209.506 417.408C211.458 414.649 213.276 411.805 214.96 408.876C210.7 406.073 206.64 403.109 202.781 399.983C199.459 406.154 195.441 411.935 190.802 417.213L130.224 416.587V416.573C130.23 416.559 130.238 416.545 130.247 416.532C130.251 416.521 130.255 416.51 130.261 416.501C130.623 415.777 132.891 410.663 125.897 408.437C125.885 406.106 126.263 403.789 127.015 401.579C127.037 401.495 127.055 401.413 127.078 401.327C127.102 401.241 127.14 401.208 127.169 401.148C127.398 400.529 127.666 399.925 127.969 399.339V399.324C128.815 397.003 128.956 394.733 128.392 392.512C128.392 392.479 128.376 392.448 128.366 392.417C128.112 391.525 127.772 390.658 127.351 389.83C127.331 389.789 127.311 389.748 127.288 389.709C126.77 388.752 126.157 387.849 125.46 387.01V386.96C125.405 386.569 124.909 384.017 121.201 382.039L118.862 378.117H118.877C123.641 376.112 127.468 372.5 129.572 368.021L209.743 384.203L229.655 388.222L229.829 388.257L229.973 388.286L230.23 388.337L234.233 389.145C234.191 389.588 234.17 390.035 234.17 390.489C234.17 391.605 234.298 392.718 234.551 393.806L254.023 412.858C253.641 411.481 252.214 409.822 249.742 407.883C248.874 407.141 248.029 406.41 247.195 405.686C248.374 405.929 249.576 406.051 250.781 406.051C259.954 406.051 267.392 399.084 267.392 390.489C267.392 389.021 267.172 387.56 266.738 386.156L272.467 380.271C274.263 383.5 275.204 387.124 275.202 390.807C275.188 396.335 273.079 401.657 269.29 405.725H269.294ZM169.466 364.113H169.519L169.556 364.06H169.519C169.495 364.072 169.479 364.093 169.462 364.113H169.466Z" fill="#4CCBC9"/>
<path fill-rule="evenodd" clip-rule="evenodd" d="M214.399 274.891L206.955 294.101C206.955 294.101 221.037 310.656 225.317 328.635L227.197 324.957L214.399 274.891Z" fill="#002B75"/>
<path fill-rule="evenodd" clip-rule="evenodd" d="M209.461 359.313L205.729 368.678L169.512 364.115L169.549 364.062C169.682 363.896 170.128 363.342 170.841 362.585C170.851 362.577 170.861 362.568 170.869 362.558C172.722 360.579 174.857 358.878 177.209 357.51C177.715 357.225 178.234 356.958 178.773 356.712L209.084 359.288L209.461 359.313Z" fill="#002B75"/>
<path fill-rule="evenodd" clip-rule="evenodd" d="M212.096 352.719L210.252 357.339L209.948 357.311L185.191 355.228L200.372 316.445L200.388 316.464L200.416 316.503L200.439 316.536C200.455 316.556 200.471 316.579 200.489 316.605L200.542 316.681C200.58 316.733 200.619 316.792 200.665 316.86L200.732 316.958C200.737 316.965 200.743 316.972 200.748 316.979C200.789 317.042 200.834 317.108 200.882 317.174C200.929 317.241 201.012 317.369 201.079 317.481L201.214 317.689C201.597 318.288 202.091 319.1 202.658 320.116L202.8 320.374C202.941 320.625 203.084 320.89 203.229 321.168C203.266 321.236 203.302 321.307 203.34 321.377C203.675 322.013 204.027 322.707 204.389 323.461L204.632 323.972C204.794 324.317 204.96 324.674 205.126 325.045L205.25 325.324C205.376 325.603 205.501 325.892 205.627 326.184L205.758 326.489L206.131 327.382L206.262 327.706L206.516 328.344C206.856 329.206 207.193 330.112 207.528 331.062C207.611 331.3 207.694 331.54 207.777 331.784C207.818 331.905 207.86 332.026 207.901 332.151C208.024 332.519 208.148 332.894 208.269 333.274C208.585 334.264 208.892 335.296 209.191 336.369C209.191 336.394 209.205 336.421 209.213 336.447C210.677 341.772 211.642 347.219 212.096 352.719Z" fill="#002B75"/>
<path fill-rule="evenodd" clip-rule="evenodd" d="M254.045 412.831L253.992 412.841C253.739 412.891 252.599 413.11 250.862 413.371C245.103 414.239 232.801 415.588 224.679 412.831L224.652 412.821C223.893 412.561 223.148 412.266 222.417 411.935L222.37 411.916C215.516 408.814 209.759 402.828 203.666 398.211C201.296 396.411 198.864 394.82 196.301 393.691C196.078 393.591 195.855 393.496 195.63 393.406C185.449 389.281 166.151 383.974 165.491 376.576L209.364 385.494L230.503 389.787L234.581 393.777L254.045 412.831Z" fill="#002B75"/>
<path fill-rule="evenodd" clip-rule="evenodd" d="M431.822 39.926L437.324 33.349C437.324 33.349 459.147 27.1583 490.185 45.7695C490.185 45.7695 503.421 42.8331 500.183 53.4781C500.183 53.4781 508.254 53.7376 507.756 46.3646C507.258 38.9915 505.43 1.41013 468.107 0.290219C430.783 -0.829691 414.067 24.7507 431.822 39.926Z" fill="#002B75"/>
<path fill-rule="evenodd" clip-rule="evenodd" d="M209.97 358.601L206.238 367.966L170.021 363.402L170.058 363.35C170.19 363.184 170.637 362.63 171.35 361.873C171.36 361.865 171.37 361.855 171.378 361.845C173.23 359.866 175.366 358.166 177.718 356.798C178.223 356.513 178.743 356.246 179.282 356L209.592 358.575L209.97 358.601Z" fill="#E4007B"/>
<path fill-rule="evenodd" clip-rule="evenodd" d="M251.554 413.118L251.501 413.128C251.248 413.179 250.108 413.398 248.371 413.659C242.612 414.527 230.31 415.875 222.188 413.118L222.16 413.109C221.402 412.849 220.657 412.553 219.926 412.223L219.879 412.203C213.025 409.101 207.268 403.115 201.175 398.499C198.804 396.698 196.372 395.108 193.81 393.979C193.587 393.879 193.364 393.783 193.138 393.694C182.958 389.569 166.66 383.398 166 376L228.012 390.074L232.09 394.064L251.554 413.118Z" fill="#A00B61"/>
<path fill-rule="evenodd" clip-rule="evenodd" d="M254.554 412.118L254.501 412.128C254.248 412.179 253.108 412.398 251.371 412.659C245.612 413.527 233.31 414.875 225.188 412.118L225.16 412.109C224.402 411.849 223.657 411.553 222.926 411.223L222.879 411.203C216.025 408.101 210.268 402.115 204.175 397.499C201.804 395.698 199.372 394.108 196.81 392.979C196.587 392.879 196.364 392.783 196.138 392.694C185.958 388.569 166.66 383.262 166 375.864L209.873 384.782L231.012 389.074L235.09 393.064L254.554 412.118Z" fill="#E4007B"/>
<path d="M323.814 367C323.614 366.699 323.514 366.299 323.315 366.199C308.931 363.695 297.045 356.684 286.157 347.068C279.465 341.059 271.574 336.952 262.684 334.548C246.803 330.242 244.805 321.828 256.292 310.009C262.784 303.299 266.38 302.498 274.87 306.003C282.262 309.008 289.553 312.013 296.945 315.017C298.543 315.719 300.241 316.219 301.04 318.323C306.034 331.544 315.623 341.159 326.011 350.073C328.509 352.277 331.205 354.28 333.503 356.684C337.498 360.89 336.699 363.294 331.205 365.297C329.408 365.998 327.21 364.997 325.812 366.9C325.113 367 324.413 367 323.814 367Z" fill="#A00B61"/>
<path d="M323.814 364C323.614 363.699 323.514 363.299 323.315 363.199C308.931 360.695 297.045 353.684 286.157 344.068C279.465 338.059 271.574 333.952 262.684 331.548C246.803 327.242 244.805 318.828 256.292 307.009C262.784 300.299 266.38 299.498 274.87 303.003C282.262 306.008 289.553 309.013 296.945 312.017C298.543 312.719 300.241 313.219 301.04 315.323C306.034 328.544 315.623 338.159 326.011 347.073C328.509 349.277 331.205 351.28 333.503 353.684C337.498 357.89 336.699 360.294 331.205 362.297C329.408 362.998 327.21 361.997 325.812 363.9C325.113 364 324.413 364 323.814 364Z" fill="#E4007B"/>
<g clip-path="url(#clip0_51_197)">
<path d="M273.249 318.039L273.297 317.926L274.675 314.719L272.112 313.829L268.088 316.96L269.707 313.106L266.949 312.038L262.024 316.1C262.024 316.1 260.728 317.223 259.476 316.457L257.598 319.024L259.51 319.688C259.51 319.688 260.981 320.165 262.672 319.13C264.357 318.093 265.037 317.335 265.037 317.335L263.831 320.806L266.295 321.662L269.835 319.002L268.329 322.368L273.032 324.002L274.645 321.623L272.088 320.735L273.249 318.039Z" fill="white"/>
<path d="M273.249 318.039L273.297 317.926L274.675 314.719L272.112 313.829L268.088 316.96L269.707 313.106L266.949 312.038L262.024 316.1C262.024 316.1 260.728 317.223 259.476 316.457L257.598 319.024L259.51 319.688C259.51 319.688 260.981 320.165 262.672 319.13C264.357 318.093 265.037 317.335 265.037 317.335L263.831 320.806L266.295 321.662L269.835 319.002L268.329 322.368L273.032 324.002L274.645 321.623L272.088 320.735L273.249 318.039Z" fill="white"/>
</g>
<defs>
<filter id="filter0_f_51_197" x="273.088" y="81.7484" width="60.3828" height="44.4269" filterUnits="userSpaceOnUse" color-interpolation-filters="sRGB">
<feFlood flood-opacity="0" result="BackgroundImageFix"/>
<feBlend mode="normal" in="SourceGraphic" in2="BackgroundImageFix" result="shape"/>
<feGaussianBlur stdDeviation="4" result="effect1_foregroundBlur_51_197"/>
</filter>
<filter id="filter1_f_51_197" x="254.676" y="87.3362" width="95.5312" height="72.4307" filterUnits="userSpaceOnUse" color-interpolation-filters="sRGB">
<feFlood flood-opacity="0" result="BackgroundImageFix"/>
<feBlend mode="normal" in="SourceGraphic" in2="BackgroundImageFix" result="shape"/>
<feGaussianBlur stdDeviation="4" result="effect1_foregroundBlur_51_197"/>
</filter>
<filter id="filter2_f_51_197" x="362.844" y="103.284" width="62.9688" height="116.129" filterUnits="userSpaceOnUse" color-interpolation-filters="sRGB">
<feFlood flood-opacity="0" result="BackgroundImageFix"/>
<feBlend mode="normal" in="SourceGraphic" in2="BackgroundImageFix" result="shape"/>
<feGaussianBlur stdDeviation="4" result="effect1_foregroundBlur_51_197"/>
</filter>
<filter id="filter3_f_51_197" x="290.549" y="26.5653" width="97.8252" height="44.2253" filterUnits="userSpaceOnUse" color-interpolation-filters="sRGB">
<feFlood flood-opacity="0" result="BackgroundImageFix"/>
<feBlend mode="normal" in="SourceGraphic" in2="BackgroundImageFix" result="shape"/>
<feGaussianBlur stdDeviation="4" result="effect1_foregroundBlur_51_197"/>
</filter>
<filter id="filter4_f_51_197" x="398.885" y="42.5242" width="31.6094" height="59.5458" filterUnits="userSpaceOnUse" color-interpolation-filters="sRGB">
<feFlood flood-opacity="0" result="BackgroundImageFix"/>
<feBlend mode="normal" in="SourceGraphic" in2="BackgroundImageFix" result="shape"/>
<feGaussianBlur stdDeviation="4" result="effect1_foregroundBlur_51_197"/>
</filter>
<clipPath id="clip0_51_197">
<rect width="18.1758" height="11.14" fill="white" transform="translate(260.654 309) rotate(19.1516)"/>
</clipPath>
</defs>
</svg>
