<svg width="82" height="72" viewBox="0 0 82 72" fill="none" xmlns="http://www.w3.org/2000/svg">
<path d="M79.5753 5.93936C73.5841 3.19041 67.1594 1.165 60.4418 0.00486763C60.3196 -0.0175308 60.1973 0.0384653 60.1343 0.150274C59.308 1.61994 58.3928 3.53703 57.7518 5.04397C50.5269 3.96224 43.3388 3.96224 36.262 5.04397C35.6209 3.50362 34.6724 1.61994 33.8424 0.150274C33.7794 0.0421372 33.6571 -0.013859 33.5349 0.00486763C26.8212 1.16114 20.3965 3.18655 14.4014 5.93936C14.3495 5.96176 14.305 5.99903 14.2755 6.04749C2.08925 24.2536 -1.24922 42.0123 0.38844 59.5506C0.395783 59.6364 0.444069 59.7184 0.510713 59.7708C8.55084 65.6753 16.3393 69.2598 23.9828 71.6359C24.1051 71.6732 24.2347 71.6285 24.3126 71.5277C26.1206 69.0586 27.7324 66.455 29.1143 63.7171C29.1958 63.5568 29.118 63.3664 28.9513 63.3031C26.3947 62.3334 23.9604 61.1508 21.6187 59.8082C21.4334 59.7001 21.4186 59.4351 21.5891 59.3083C22.0819 58.9391 22.5749 58.5548 23.0454 58.1669C23.1306 58.096 23.2492 58.0811 23.3493 58.1258C38.733 65.1495 55.3877 65.1495 70.5898 58.1258C70.6899 58.0773 70.8085 58.0923 70.8973 58.163C71.3681 58.551 71.8608 58.9389 72.3573 59.3081C72.5276 59.435 72.5165 59.6999 72.3314 59.808C69.9897 61.1769 67.5554 62.3332 64.9952 63.2993C64.8285 63.3626 64.7543 63.5566 64.836 63.7169C66.2476 66.451 67.8594 69.0546 69.634 71.5239C69.7082 71.6284 69.8415 71.6732 69.9638 71.6357C77.6444 69.2598 85.4328 65.6751 93.473 59.7706C93.5435 59.7184 93.5879 59.64 93.5952 59.5543C95.5553 39.278 90.3124 21.6649 79.6972 6.05117C79.6715 5.99903 79.627 5.96176 79.5753 5.93936ZM31.412 48.8715C26.7804 48.8715 22.9641 44.6195 22.9641 39.3973C22.9641 34.1754 26.7063 29.9232 31.412 29.9232C36.1544 29.9232 39.9338 34.2126 39.8597 39.3973C39.8597 44.6195 36.1173 48.8715 31.412 48.8715ZM62.6463 48.8715C58.0149 48.8715 54.1986 44.6195 54.1986 39.3973C54.1986 34.1754 57.9407 29.9232 62.6463 29.9232C67.3889 29.9232 71.1681 34.2126 71.0941 39.3973C71.0941 44.6195 67.389 48.8715 62.6463 48.8715Z" fill="#1F243F"/>
</svg>
