<svg width="83" height="66" viewBox="0 0 83 66" fill="none" xmlns="http://www.w3.org/2000/svg">
<path d="M83 7.81326C79.9134 9.13834 76.6246 10.0166 73.1956 10.4431C76.7231 8.38188 79.4154 5.1428 80.6812 1.23865C77.3923 3.15772 73.7611 4.51326 69.8912 5.26972C66.7683 2.01542 62.3174 -0.00012207 57.4619 -0.00012207C48.0414 -0.00012207 40.4573 7.48326 40.4573 16.6573C40.4573 17.9773 40.5714 19.2465 40.8516 20.4548C26.7052 19.7796 14.1878 13.144 5.77887 3.03588C4.31081 5.52865 3.44969 8.38188 3.44969 11.4534C3.44969 17.2208 6.48438 22.3333 11.0079 25.2931C8.27406 25.2423 5.59212 24.4656 3.32 23.242C3.32 23.2928 3.32 23.3588 3.32 23.4248C3.32 31.5174 9.21819 38.2393 16.9527 39.7877C15.5677 40.1583 14.0581 40.336 12.4915 40.336C11.4021 40.336 10.3024 40.2751 9.27006 40.0517C11.4747 46.6466 17.7309 51.4951 25.1698 51.6525C19.3805 56.0846 12.0298 58.7551 4.07219 58.7551C2.67675 58.7551 1.33837 58.6942 0 58.5266C7.53744 63.2837 16.4703 65.9999 26.1035 65.9999C57.4152 65.9999 74.534 40.6153 74.534 18.6119C74.534 17.8757 74.5081 17.165 74.4717 16.4593C77.8488 14.1137 80.6864 11.1843 83 7.81326Z" fill="#1F243F"/>
</svg>
