<svg width="17" height="16" viewBox="0 0 17 16" fill="none" xmlns="http://www.w3.org/2000/svg">
<path d="M3.89062 16V5.48828H0.621094V16H3.89062ZM2.23828 4.08203C3.29297 4.08203 4.13672 3.20312 4.13672 2.14844C4.13672 1.12891 3.29297 0.285156 2.23828 0.285156C1.21875 0.285156 0.375 1.12891 0.375 2.14844C0.375 3.20312 1.21875 4.08203 2.23828 4.08203ZM16.0898 16H16.125V10.2344C16.125 7.42188 15.4922 5.24219 12.1875 5.24219C10.6055 5.24219 9.55078 6.12109 9.09375 6.92969H9.05859V5.48828H5.92969V16H9.19922V10.7969C9.19922 9.42578 9.44531 8.125 11.1328 8.125C12.8203 8.125 12.8555 9.67188 12.8555 10.9023V16H16.0898Z" fill="#4CCBC9"/>
</svg>
