<svg width="64" height="64" viewBox="0 0 64 64" fill="none" xmlns="http://www.w3.org/2000/svg">
<path d="M18.5527 29.0881C19.016 28.1616 18.6406 27.0355 17.7141 26.5723L2.7143 19.0724C1.78968 18.6146 0.661697 18.9845 0.198453 19.911C-0.264791 20.8375 0.110579 21.9636 1.03707 22.4268L7.19711 25.5069C3.87128 38.9755 0.000705292 55.4108 0.000705292 58.3741C0.000705292 61.4758 2.52392 63.9991 5.62563 63.9991H11.2114C11.2332 63.9991 11.2506 63.9814 11.2506 63.9599V27.5335L16.0369 29.9267C16.9719 30.3909 18.0912 30.0082 18.5527 29.0881Z" fill="#DB2B8A"/>
<path d="M60.2504 56.499H15.001V63.9989H60.2504C62.3215 63.9989 64.0004 62.3198 64.0004 60.249C64.0004 58.1779 62.3215 56.499 60.2504 56.499Z" fill="#DB2B8A"/>
<path d="M33.875 52.7491H41.3749C41.4008 49.7604 42.0558 46.3132 43.1915 42.8942C40.7853 40.7188 39.1548 38.0925 38.3121 34.9343C35.8002 40.3768 33.9372 46.6682 33.875 52.7491Z" fill="#4CCBC9"/>
<path d="M22.8174 26.3734L28.4243 26.375C34.3074 26.375 39.3977 22.099 41.7139 15.1942C42.4728 13.0077 40.9818 10.6659 38.7209 10.318C40.2434 9.31039 41.2502 7.58341 41.2502 5.62481C41.2502 2.5231 38.7269 -0.00012207 35.6252 -0.00012207C32.5235 -0.00012207 30.0003 2.5231 30.0003 5.62481C30.0003 8.72652 32.5235 11.2497 35.6252 11.2497C35.6896 11.2497 35.7532 11.247 35.8171 11.2449C35.8046 11.2572 34.9275 11.5487 34.5509 12.9878C33.3826 16.6279 31.1104 18.7739 28.2503 18.8746H28.1253C24.8004 18.8746 21.9746 21.0481 20.9942 24.0493C20.616 25.2062 21.5999 26.3732 22.8174 26.3734Z" fill="#4CCBC9"/>
<path d="M41.3755 30.1244C41.6063 35.5552 43.7559 39.3126 48.1759 41.9712C51.1862 43.685 54.2366 44.6134 58.0708 44.9814C59.2038 45.0844 60.1253 44.1976 60.1253 43.1155V39.3602C60.1253 38.4081 59.4131 37.6078 58.4682 37.4981C55.9248 37.2015 53.5794 36.4892 52.0339 35.5407C49.8934 34.2298 48.9486 32.6002 48.8753 30.1246C48.8253 25.2519 47.607 20.4907 45.3624 16.089C45.3314 16.1941 45.2997 16.2992 45.2639 16.4035C44.2101 19.5378 42.6279 22.2885 40.6338 24.4889C41.0919 26.2646 41.3462 28.1441 41.3755 30.1244Z" fill="#4CCBC9"/>
</svg>
