<svg width="83" height="44" viewBox="0 0 83 44" fill="none" xmlns="http://www.w3.org/2000/svg">
<path d="M52.8003 8.71778H56.7667L55.0634 6.38985C54.8869 6.15546 54.6366 5.98734 54.3528 5.91259C54.0691 5.83785 53.7684 5.86083 53.4993 5.97783C50.6356 7.06955 47.5526 7.46145 44.5068 7.12091L55.994 21.5958H66.1676L64.2874 19.0202H59.2393C58.8977 19.0202 58.5702 18.8845 58.3287 18.643C58.0871 18.4015 57.9515 18.0739 57.9515 17.7324C57.9515 17.3908 58.0871 17.0633 58.3287 16.8218C58.5702 16.5803 58.8977 16.4446 59.2393 16.4446H62.4073L61.4672 15.1568H56.6637C56.3221 15.1568 55.9946 15.0211 55.7531 14.7796C55.5115 14.5381 55.3759 14.2105 55.3759 13.869C55.3759 13.5274 55.5115 13.1999 55.7531 12.9584C55.9946 12.7169 56.3221 12.5812 56.6637 12.5812H59.587L58.6469 11.2934H52.8003C52.4587 11.2934 52.1312 11.1577 51.8897 10.9162C51.6481 10.6747 51.5125 10.3471 51.5125 10.0056C51.5125 9.66404 51.6481 9.33648 51.8897 9.09497C52.1312 8.85346 52.4587 8.71778 52.8003 8.71778Z" fill="#4CCBC9"/>
<path d="M65.8582 24.1714C63.9876 25.4575 62.4697 27.1925 61.4437 29.2175C60.4177 31.2425 59.9165 33.4926 59.9858 35.7616H82.4193C82.4193 32.6877 81.1982 29.7397 79.0246 27.5661C76.851 25.3925 73.903 24.1714 70.8291 24.1714H65.8582Z" fill="#4CCBC9"/>
<path d="M25.4216 21.8662C25.9023 19.8042 25.7 17.6419 24.8453 15.7048C23.9905 13.7678 22.5296 12.1608 20.6825 11.126L19.6137 10.5336L16.2139 17.2559L25.4216 21.8662Z" fill="#4CCBC9"/>
<path d="M53.1095 35.7616H57.4237C57.4365 35.1692 57.4623 34.6025 57.5267 34.0617L28.2421 19.8701C28.2298 20.9472 28.0695 22.0175 27.7656 23.051L53.1095 35.7616Z" fill="#4CCBC9"/>
<path d="M27.9326 16.8438L57.9641 31.4088C58.6081 28.6906 59.9637 26.1927 61.8919 24.1714H55.3756C55.1834 24.1714 54.9937 24.128 54.8206 24.0443C54.6476 23.9607 54.4957 23.839 54.3762 23.6884L40.7462 6.50279C35.6502 5.24488 30.8091 3.11808 26.4355 0.215751C26.2844 0.115158 26.1137 0.0476384 25.9346 0.0176172C25.7556 -0.0124041 25.5722 -0.00425022 25.3965 0.0415463C25.2208 0.0873428 25.0568 0.169746 24.9152 0.283358C24.7736 0.396969 24.6576 0.539226 24.5748 0.7008L20.7725 8.22844L21.9444 8.88522C23.4433 9.71958 24.7507 10.8589 25.7821 12.2297C26.8136 13.6006 27.5462 15.1724 27.9326 16.8438Z" fill="#4CCBC9"/>
<path d="M52.2205 38.1955L25.6017 24.8539C25.5888 24.8281 25.5631 24.8281 25.5502 24.8153L15.0546 19.561L13.0199 23.5918C12.8666 23.8953 12.8389 24.2468 12.9426 24.5706C12.9932 24.7325 13.0764 24.8823 13.1872 25.0107C13.2979 25.1392 13.4338 25.2436 13.5865 25.3175L49.6449 43.3467C49.8243 43.4387 50.0228 43.4873 50.2244 43.4884H81.1316C81.4728 43.4873 81.7998 43.3513 82.0411 43.11C82.2824 42.8688 82.4184 42.5418 82.4194 42.2006V38.3372H52.8C52.5984 38.3361 52.3999 38.2875 52.2205 38.1955Z" fill="#4CCBC9"/>
<path d="M21.8924 33.186C21.8924 33.0169 21.8591 32.8494 21.7944 32.6931C21.7297 32.5369 21.6349 32.3949 21.5153 32.2753C21.3957 32.1557 21.2537 32.0608 21.0974 31.9961C20.9412 31.9314 20.7737 31.8981 20.6046 31.8982H9.01436C8.67282 31.8982 8.34526 32.0339 8.10375 32.2754C7.86224 32.5169 7.72656 32.8444 7.72656 33.186C7.72656 33.5275 7.86224 33.8551 8.10375 34.0966C8.34526 34.3381 8.67282 34.4738 9.01436 34.4738H20.6046C20.7737 34.4738 20.9412 34.4406 21.0974 34.3759C21.2537 34.3112 21.3957 34.2163 21.5153 34.0967C21.6349 33.9771 21.7297 33.8351 21.7944 33.6789C21.8591 33.5226 21.8924 33.3551 21.8924 33.186Z" fill="#DB2B8A"/>
<path d="M5.15079 31.8982H3.863C3.52145 31.8982 3.19389 32.0339 2.95238 32.2754C2.71087 32.5169 2.5752 32.8444 2.5752 33.186C2.5752 33.5275 2.71087 33.8551 2.95238 34.0966C3.19389 34.3381 3.52145 34.4738 3.863 34.4738H5.15079C5.49234 34.4738 5.8199 34.3381 6.06141 34.0966C6.30292 33.8551 6.43859 33.5275 6.43859 33.186C6.43859 32.8444 6.30292 32.5169 6.06141 32.2754C5.8199 32.0339 5.49234 31.8982 5.15079 31.8982Z" fill="#DB2B8A"/>
<path d="M3.863 16.4446H5.15079C5.49234 16.4446 5.8199 16.3089 6.06141 16.0674C6.30292 15.8259 6.43859 15.4984 6.43859 15.1568C6.43859 14.8153 6.30292 14.4877 6.06141 14.2462C5.8199 14.0047 5.49234 13.869 5.15079 13.869H3.863C3.52145 13.869 3.19389 14.0047 2.95238 14.2462C2.71087 14.4877 2.5752 14.8153 2.5752 15.1568C2.5752 15.4984 2.71087 15.8259 2.95238 16.0674C3.19389 16.3089 3.52145 16.4446 3.863 16.4446Z" fill="#DB2B8A"/>
<path d="M6.43917 7.42997H7.72697C8.06851 7.42997 8.39607 7.29429 8.63758 7.05278C8.87909 6.81127 9.01477 6.48372 9.01477 6.14217C9.01477 5.80062 8.87909 5.47307 8.63758 5.23156C8.39607 4.99005 8.06851 4.85437 7.72697 4.85437H6.43917C6.09762 4.85437 5.77006 4.99005 5.52856 5.23156C5.28705 5.47307 5.15137 5.80062 5.15137 6.14217C5.15137 6.48372 5.28705 6.81127 5.52856 7.05278C5.77006 7.29429 6.09762 7.42997 6.43917 7.42997Z" fill="#DB2B8A"/>
<path d="M10.3024 24.1715C10.3024 24.0023 10.2692 23.8349 10.2045 23.6786C10.1398 23.5223 10.0449 23.3803 9.92531 23.2608C9.80572 23.1412 9.66373 23.0463 9.50747 22.9816C9.35121 22.9169 9.18373 22.8836 9.0146 22.8837H1.2878C0.946254 22.8837 0.618697 23.0193 0.377188 23.2609C0.135679 23.5024 0 23.8299 0 24.1715C0 24.513 0.135679 24.8406 0.377188 25.0821C0.618697 25.3236 0.946254 25.4593 1.2878 25.4593H9.0146C9.18373 25.4593 9.35121 25.426 9.50747 25.3613C9.66373 25.2966 9.80572 25.2018 9.92531 25.0822C10.0449 24.9626 10.1398 24.8206 10.2045 24.6643C10.2692 24.5081 10.3024 24.3406 10.3024 24.1715Z" fill="#DB2B8A"/>
<path d="M11.5905 7.42997H18.0295C18.3711 7.42997 18.6986 7.29429 18.9401 7.05278C19.1817 6.81127 19.3173 6.48372 19.3173 6.14217C19.3173 5.80062 19.1817 5.47307 18.9401 5.23156C18.6986 4.99005 18.3711 4.85437 18.0295 4.85437H11.5905C11.249 4.85437 10.9214 4.99005 10.6799 5.23156C10.4384 5.47307 10.3027 5.80062 10.3027 6.14217C10.3027 6.48372 10.4384 6.81127 10.6799 7.05278C10.9214 7.29429 11.249 7.42997 11.5905 7.42997Z" fill="#DB2B8A"/>
<path d="M9.01436 13.869C8.67282 13.869 8.34526 14.0047 8.10375 14.2462C7.86224 14.4877 7.72656 14.8153 7.72656 15.1568C7.72656 15.4984 7.86224 15.8259 8.10375 16.0674C8.34526 16.3089 8.67282 16.4446 9.01436 16.4446H14.1656C14.5071 16.4446 14.8347 16.3089 15.0762 16.0674C15.3177 15.8259 15.4534 15.4984 15.4534 15.1568C15.4534 14.8153 15.3177 14.4877 15.0762 14.2462C14.8347 14.0047 14.5071 13.869 14.1656 13.869H9.01436Z" fill="#DB2B8A"/>
<path d="M37.3459 40.9128H21.8923C21.5507 40.9128 21.2232 41.0485 20.9817 41.29C20.7402 41.5315 20.6045 41.8591 20.6045 42.2006C20.6045 42.5422 20.7402 42.8697 20.9817 43.1113C21.2232 43.3528 21.5507 43.4884 21.8923 43.4884H37.3459C37.6874 43.4884 38.015 43.3528 38.2565 43.1113C38.498 42.8697 38.6337 42.5422 38.6337 42.2006C38.6337 41.8591 38.498 41.5315 38.2565 41.29C38.015 41.0485 37.6874 40.9128 37.3459 40.9128Z" fill="#DB2B8A"/>
<path d="M18.0287 40.9128H16.7409C16.3994 40.9128 16.0718 41.0485 15.8303 41.29C15.5888 41.5315 15.4531 41.8591 15.4531 42.2006C15.4531 42.5422 15.5888 42.8697 15.8303 43.1113C16.0718 43.3528 16.3994 43.4884 16.7409 43.4884H18.0287C18.3703 43.4884 18.6978 43.3528 18.9393 43.1113C19.1808 42.8697 19.3165 42.5422 19.3165 42.2006C19.3165 41.8591 19.1808 41.5315 18.9393 41.29C18.6978 41.0485 18.3703 40.9128 18.0287 40.9128Z" fill="#DB2B8A"/>
</svg>
