<svg width="76" height="54" viewBox="0 0 76 54" fill="none" xmlns="http://www.w3.org/2000/svg">
<path d="M28.5973 26.9908L23.1131 32.475C23.7167 32.7864 24.2746 33.1937 24.7675 33.6866C27.0452 35.9614 30.7735 35.9955 33.0854 33.6866C34.3398 32.4322 36.0075 31.7415 37.7815 31.7415C39.5555 31.7415 41.2232 32.4322 42.4776 33.6866C44.7553 35.9614 48.4836 35.9955 50.7955 33.6866C51.3652 33.117 52.019 32.6639 52.7288 32.3392L51.2946 30.9048C54.1923 31.6029 57.3723 30.8206 59.6361 28.5566C63.0885 25.104 63.0885 19.4864 59.6361 16.0337C56.1751 12.5727 50.5735 12.5731 47.1131 16.0337C44.8534 18.2933 44.0732 21.4804 44.7714 24.381L37.743 17.352L46.1036 12.3371C49.2427 10.451 50.264 6.36291 48.3853 3.23117C46.5065 0.0743422 42.4111 -0.936609 39.269 0.946565L26.0425 8.88364C21.1117 11.8412 20.2631 18.6567 24.3409 22.7359L28.5973 26.9908Z" fill="#4CCBC9"/>
<path d="M56.7034 46.0255L56.7033 46.0255C56.0342 45.3563 54.9491 45.3562 54.2798 46.0255L53.9266 45.6723L54.2798 46.0255C50.065 50.2401 43.208 50.2401 38.9933 46.0255L38.9932 46.0255C38.3241 45.3563 37.239 45.3562 36.5697 46.0255L36.2165 45.6723L36.5696 46.0255C32.3549 50.2401 25.4979 50.2401 21.2832 46.0255L21.2831 46.0255C20.614 45.3563 19.5288 45.3562 18.8595 46.0255L18.5064 45.6724L18.8595 46.0255C14.6039 50.281 7.68106 50.281 3.42546 46.0255L3.42542 46.0255C2.75632 45.3563 1.67119 45.3562 1.00188 46.0255C1.00187 46.0255 1.00186 46.0255 1.00185 46.0255M56.7034 46.0255L1.00185 46.0255M56.7034 46.0255C60.959 50.281 67.8819 50.281 72.1374 46.0255L71.7847 45.6728L72.1375 46.0255C72.8068 45.3562 73.8918 45.3563 74.5609 46.0255L74.9145 45.672L74.5609 46.0255C75.2302 46.6948 75.2302 47.78 74.5609 48.4491L74.9145 48.8027L74.5609 48.4491C71.8726 51.1375 68.2734 52.6189 64.4203 52.6189C61.2495 52.6189 58.2517 51.6157 55.7922 49.764L55.4915 49.5376L55.1908 49.7639C50.1454 53.5611 43.1273 53.5611 38.0821 49.7639L37.7814 49.5376L37.4807 49.7639C32.4355 53.561 25.4173 53.5611 20.3719 49.7639L20.0712 49.5376L19.7705 49.764C17.311 51.6157 14.3132 52.6189 11.1424 52.6189C7.28936 52.6189 3.69028 51.1375 1.00188 48.4491M56.7034 46.0255L1.00188 48.4491M1.00185 46.0255C0.332705 46.6948 0.332715 47.7799 1.00188 48.4491M1.00185 46.0255L1.00188 48.4491" fill="#DB2B8A" stroke="black"/>
<path d="M20.0714 40.6825L20.3721 40.9088C25.4175 44.706 32.4356 44.7059 37.4809 40.9088L37.7815 40.6825L38.0822 40.9088C43.1274 44.706 50.1456 44.706 55.191 40.9088L55.4917 40.6825L55.7924 40.9089C58.2519 42.7606 61.2497 43.7638 64.4205 43.7638C68.2736 43.7638 71.8728 42.2824 74.561 39.594L74.9146 39.9476L74.5611 39.594C75.2303 38.9249 75.2304 37.8398 74.5611 37.1705C73.8916 36.5011 72.8067 36.5012 72.1375 37.1704L71.7847 36.8177L72.1374 37.1704C67.8819 41.4259 60.959 41.4259 56.7034 37.1704L56.7033 37.1704C56.0342 36.5012 54.9491 36.5011 54.2798 37.1704L53.9266 36.8172L54.2798 37.1704C50.065 41.385 43.208 41.385 38.9933 37.1704L38.9932 37.1704C38.3241 36.5012 37.239 36.5011 36.5697 37.1704L36.2165 36.8172L36.5696 37.1704C32.3549 41.385 25.4979 41.385 21.2832 37.1704L21.2831 37.1704C20.614 36.5012 19.5288 36.5011 18.8595 37.1704L18.5064 36.8173L18.8595 37.1704C14.6039 41.4259 7.68106 41.4259 3.42546 37.1704L3.42542 37.1704C2.75632 36.5012 1.67119 36.5011 1.00188 37.1704C1.00187 37.1704 1.00186 37.1704 1.00185 37.1704M20.0714 40.6825L0.648301 39.9476C-0.2161 39.083 -0.2161 37.6814 0.648301 36.8169L1.00185 37.1704M20.0714 40.6825L19.7707 40.9089C17.3112 42.7606 14.3134 43.7638 11.1426 43.7638C7.2895 43.7638 3.69028 42.2824 1.00188 39.594M20.0714 40.6825L1.00188 39.594M1.00185 37.1704C0.332705 37.8397 0.332715 38.9248 1.00188 39.594M1.00185 37.1704L1.00188 39.594" fill="#DB2B8A" stroke="black"/>
</svg>
