<svg width="19" height="16" viewBox="0 0 19 16" fill="none" xmlns="http://www.w3.org/2000/svg">
<path d="M16.8867 4.59375C17.5898 4.06641 18.2227 3.43359 18.7148 2.69531C18.082 2.97656 17.3438 3.1875 16.6055 3.25781C17.3789 2.80078 17.9414 2.09766 18.2227 1.21875C17.5195 1.64062 16.7109 1.95703 15.9023 2.13281C15.1992 1.39453 14.25 0.972656 13.1953 0.972656C11.1562 0.972656 9.50391 2.625 9.50391 4.66406C9.50391 4.94531 9.53906 5.22656 9.60938 5.50781C6.55078 5.33203 3.80859 3.85547 1.98047 1.64062C1.66406 2.16797 1.48828 2.80078 1.48828 3.50391C1.48828 4.76953 2.12109 5.89453 3.14062 6.5625C2.54297 6.52734 1.94531 6.38672 1.45312 6.10547V6.14062C1.45312 7.93359 2.71875 9.41016 4.40625 9.76172C4.125 9.83203 3.77344 9.90234 3.45703 9.90234C3.21094 9.90234 3 9.86719 2.75391 9.83203C3.21094 11.3086 4.58203 12.3633 6.19922 12.3984C4.93359 13.3828 3.35156 13.9805 1.62891 13.9805C1.3125 13.9805 1.03125 13.9453 0.75 13.9102C2.36719 14.9648 4.30078 15.5625 6.41016 15.5625C13.1953 15.5625 16.8867 9.97266 16.8867 5.08594C16.8867 4.91016 16.8867 4.76953 16.8867 4.59375Z" fill="#4CCBC9"/>
</svg>
